<svg width="24" height="24" viewBox="0 0 24 24" fill="none" xmlns="http://www.w3.org/2000/svg">
<g id="basil:instagram-outline">
<path id="Vector" d="M16 7C16 6.73478 16.1054 6.48043 16.2929 6.29289C16.4804 6.10536 16.7348 6 17 6C17.2652 6 17.5196 6.10536 17.7071 6.29289C17.8946 6.48043 18 6.73478 18 7C18 7.26522 17.8946 7.51957 17.7071 7.70711C17.5196 7.89464 17.2652 8 17 8C16.7348 8 16.4804 7.89464 16.2929 7.70711C16.1054 7.51957 16 7.26522 16 7Z" fill="white"/>
<path id="Vector_2" fill-rule="evenodd" clip-rule="evenodd" d="M12 7.25C10.7402 7.25 9.53204 7.75045 8.64124 8.64124C7.75045 9.53204 7.25 10.7402 7.25 12C7.25 13.2598 7.75045 14.468 8.64124 15.3588C9.53204 16.2496 10.7402 16.75 12 16.75C13.2598 16.75 14.468 16.2496 15.3588 15.3588C16.2496 14.468 16.75 13.2598 16.75 12C16.75 10.7402 16.2496 9.53204 15.3588 8.64124C14.468 7.75045 13.2598 7.25 12 7.25ZM8.75 12C8.75 11.138 9.09241 10.3114 9.7019 9.7019C10.3114 9.09241 11.138 8.75 12 8.75C12.862 8.75 13.6886 9.09241 14.2981 9.7019C14.9076 10.3114 15.25 11.138 15.25 12C15.25 12.862 14.9076 13.6886 14.2981 14.2981C13.6886 14.9076 12.862 15.25 12 15.25C11.138 15.25 10.3114 14.9076 9.7019 14.2981C9.09241 13.6886 8.75 12.862 8.75 12Z" fill="white"/>
<path id="Vector_3" fill-rule="evenodd" clip-rule="evenodd" d="M17.2576 2.83303C13.7629 2.44563 10.2362 2.44563 6.74157 2.83303C4.72957 3.05803 3.10457 4.64303 2.86857 6.66503C2.45397 10.2096 2.45397 13.7904 2.86857 17.335C3.10457 19.357 4.72857 20.942 6.74157 21.167C10.2362 21.554 13.7629 21.554 17.2576 21.167C19.2696 20.942 20.8946 19.357 21.1306 17.335C21.5452 13.7905 21.5452 10.2096 21.1306 6.66503C20.8946 4.64303 19.2706 3.05803 17.2576 2.83303ZM6.90757 4.32303C10.2919 3.94791 13.7073 3.94791 17.0916 4.32303C18.4216 4.47303 19.4866 5.52203 19.6416 6.84003C20.0425 10.2684 20.0425 13.7317 19.6416 17.16C19.5614 17.8051 19.2661 18.4043 18.8034 18.8608C18.3407 19.3173 17.7376 19.6045 17.0916 19.676C13.7073 20.0512 10.2919 20.0512 6.90757 19.676C6.26151 19.6045 5.65842 19.3173 5.19572 18.8608C4.73303 18.4043 4.43774 17.8051 4.35757 17.16C3.95662 13.7317 3.95662 10.2684 4.35757 6.84003C4.43774 6.19499 4.73303 5.59581 5.19572 5.13929C5.65842 4.68276 6.26151 4.39454 6.90757 4.32303Z" fill="white"/>
</g>
</svg>
