<svg width="20" height="20" viewBox="0 0 20 20" fill="none" xmlns="http://www.w3.org/2000/svg">
<g id="Group 40">
<circle id="Ellipse 10" cx="10" cy="10" r="10" fill="white"/>
<g id="Vector">
<mask id="path-2-inside-1_90_4140" fill="white">
<path fill-rule="evenodd" clip-rule="evenodd" d="M8.89744 6.12173C9.41554 5.6168 10.1183 5.33309 10.851 5.33301H12.272C12.3767 5.33301 12.4771 5.37353 12.5512 5.44566C12.6252 5.51779 12.6668 5.61562 12.6668 5.71762V7.56378C12.6668 7.66578 12.6252 7.76361 12.5512 7.83574C12.4771 7.90787 12.3767 7.94839 12.272 7.94839H10.851C10.8407 7.94839 10.8304 7.95038 10.8208 7.95425C10.8113 7.95811 10.8026 7.96378 10.7952 7.97092C10.7879 7.97807 10.7821 7.98655 10.7781 7.99588C10.7741 8.00521 10.7721 8.01521 10.7721 8.02532V9.02532H12.272C12.3321 9.02528 12.3913 9.03858 12.4452 9.0642C12.4992 9.08982 12.5464 9.12709 12.5833 9.17317C12.6203 9.21925 12.646 9.27293 12.6584 9.33013C12.6709 9.38733 12.6698 9.44654 12.6552 9.50326L12.1815 11.3494C12.1602 11.4327 12.1108 11.5065 12.0414 11.5593C11.972 11.6121 11.8864 11.6407 11.7984 11.6407H10.7721V14.9484C10.7721 15.0504 10.7305 15.1482 10.6565 15.2204C10.5825 15.2925 10.4821 15.333 10.3774 15.333H8.48272C8.37803 15.333 8.27763 15.2925 8.2036 15.2204C8.12958 15.1482 8.08799 15.0504 8.08799 14.9484V11.6407H7.06171C6.95703 11.6407 6.85663 11.6002 6.7826 11.528C6.70858 11.4559 6.66699 11.3581 6.66699 11.2561V9.40993C6.66699 9.35942 6.6772 9.30941 6.69704 9.26275C6.71688 9.21608 6.74595 9.17368 6.7826 9.13797C6.81926 9.10225 6.86277 9.07392 6.91066 9.05459C6.95855 9.03526 7.00988 9.02532 7.06171 9.02532H8.08799V8.02532C8.08808 7.3113 8.37924 6.62657 8.89744 6.12173ZM10.851 6.10224C10.3276 6.10224 9.82562 6.30485 9.45549 6.66549C9.08537 7.02614 8.87744 7.51528 8.87744 8.02532V9.40993C8.87744 9.51194 8.83585 9.60977 8.76183 9.6819C8.6878 9.75402 8.5874 9.79455 8.48272 9.79455H7.45644V10.8715H8.48272C8.5874 10.8715 8.6878 10.912 8.76183 10.9841C8.83585 11.0563 8.87744 11.1541 8.87744 11.2561V14.5638H9.98266V11.2561C9.98266 11.1541 10.0242 11.0563 10.0983 10.9841C10.1723 10.912 10.2727 10.8715 10.3774 10.8715H11.49L11.7663 9.79455H10.3774C10.2727 9.79455 10.1723 9.75402 10.0983 9.6819C10.0242 9.60977 9.98266 9.51194 9.98266 9.40993V8.02532C9.98266 7.8009 10.0742 7.58568 10.237 7.42699C10.3999 7.26831 10.6207 7.17916 10.851 7.17916H11.8773V6.10224H10.851Z"/>
</mask>
<path d="M8.89744 6.12173L9.59525 6.838L9.59537 6.83788L8.89744 6.12173ZM10.851 5.33301V4.33301H10.8509L10.851 5.33301ZM12.272 7.94839V8.94839V7.94839ZM10.851 7.94839V8.94839V7.94839ZM10.7721 9.02532H9.7721V10.0253H10.7721V9.02532ZM12.272 9.02532V10.0253L12.2726 10.0253L12.272 9.02532ZM12.6584 9.33013L13.6355 9.11744L12.6584 9.33013ZM12.6552 9.50326L11.6866 9.25461L11.6866 9.25474L12.6552 9.50326ZM12.1815 11.3494L13.1501 11.5981L13.1502 11.5979L12.1815 11.3494ZM11.7984 11.6407L11.7989 10.6407H11.7984V11.6407ZM10.7721 11.6407V10.6407H9.7721V11.6407H10.7721ZM8.08799 11.6407H9.08799V10.6407H8.08799V11.6407ZM7.06171 11.6407V12.6407V11.6407ZM6.66699 9.40993H7.66699H6.66699ZM8.08799 9.02532V10.0253H9.08799V9.02532H8.08799ZM8.08799 8.02532L7.08799 8.02519V8.02532H8.08799ZM7.45644 9.79455V8.79455H6.45644V9.79455H7.45644ZM7.45644 10.8715H6.45644V11.8715H7.45644V10.8715ZM8.87744 14.5638H7.87744V15.5638H8.87744V14.5638ZM9.98266 14.5638V15.5638H10.9827V14.5638H9.98266ZM9.98266 11.2561H10.9827H9.98266ZM11.49 10.8715V11.8715H12.2658L12.4586 11.12L11.49 10.8715ZM11.7663 9.79455L12.7349 10.0431L13.0552 8.79455H11.7663V9.79455ZM10.851 7.17916V6.17916V7.17916ZM11.8773 7.17916V8.17916H12.8773V7.17916H11.8773ZM11.8773 6.10224H12.8773V5.10224H11.8773V6.10224ZM9.59537 6.83788C9.92409 6.51753 10.3753 6.33306 10.8512 6.33301L10.8509 4.33301C9.8612 4.33312 8.90699 4.71607 8.1995 5.40557L9.59537 6.83788ZM10.851 6.33301H12.272V4.33301H10.851V6.33301ZM12.272 6.33301C12.1198 6.33301 11.9687 6.27431 11.8533 6.16188L13.249 4.72944C12.9856 4.47275 12.6337 4.33301 12.272 4.33301V6.33301ZM11.8533 6.16188C11.737 6.04858 11.6668 5.88932 11.6668 5.71762H13.6668C13.6668 5.34191 13.5134 4.98699 13.249 4.72944L11.8533 6.16188ZM11.6668 5.71762V7.56378H13.6668V5.71762H11.6668ZM11.6668 7.56378C11.6668 7.39208 11.737 7.23282 11.8533 7.11952L13.249 8.55196C13.5134 8.29441 13.6668 7.93949 13.6668 7.56378H11.6668ZM11.8533 7.11952C11.9687 7.00709 12.1198 6.94839 12.272 6.94839V8.94839C12.6337 8.94839 12.9856 8.80865 13.249 8.55196L11.8533 7.11952ZM12.272 6.94839H10.851V8.94839H12.272V6.94839ZM10.851 6.94839C10.7129 6.94839 10.5755 6.97488 10.4466 7.02693L11.1951 8.88157C11.0853 8.92589 10.9685 8.94839 10.851 8.94839V6.94839ZM10.4466 7.02693C10.3176 7.079 10.1987 7.15598 10.0973 7.25471L11.4931 8.68714C11.4064 8.77158 11.305 8.83723 11.1951 8.88157L10.4466 7.02693ZM10.0973 7.25471C9.99597 7.35349 9.91414 7.47217 9.85782 7.60466L11.6984 8.3871C11.65 8.50092 11.5798 8.60264 11.4931 8.68714L10.0973 7.25471ZM9.85782 7.60466C9.80147 7.73721 9.7721 7.88023 9.7721 8.02532H11.7721C11.7721 8.1502 11.7468 8.27321 11.6984 8.3871L9.85782 7.60466ZM9.7721 8.02532V9.02532H11.7721V8.02532H9.7721ZM10.7721 10.0253H12.272V8.02532H10.7721V10.0253ZM12.2726 10.0253C12.1848 10.0254 12.0972 10.0059 12.0162 9.96749L12.8743 8.16092C12.6854 8.07122 12.4794 8.0252 12.2715 8.02532L12.2726 10.0253ZM12.0162 9.96749C11.9351 9.92899 11.8618 9.87188 11.8031 9.79865L13.3636 8.54769C13.231 8.3823 13.0632 8.25065 12.8743 8.16092L12.0162 9.96749ZM11.8031 9.79865C11.7443 9.7253 11.702 9.63797 11.6813 9.54282L13.6355 9.11744C13.5899 8.9079 13.4963 8.7132 13.3636 8.54769L11.8031 9.79865ZM11.6813 9.54282C11.6606 9.44761 11.6624 9.34884 11.6866 9.25461L13.6238 9.75192C13.6771 9.54424 13.6811 9.32704 13.6355 9.11744L11.6813 9.54282ZM11.6866 9.25474L11.2129 11.1009L13.1502 11.5979L13.6238 9.75178L11.6866 9.25474ZM11.2129 11.1008C11.2485 10.9623 11.3292 10.8446 11.4362 10.7633L12.6466 12.3554C12.8925 12.1685 13.0718 11.903 13.1501 11.5981L11.2129 11.1008ZM11.4362 10.7633C11.5428 10.6822 11.6705 10.6406 11.7989 10.6407L11.7978 12.6407C12.1024 12.6409 12.4012 12.542 12.6466 12.3554L11.4362 10.7633ZM11.7984 10.6407H10.7721V12.6407H11.7984V10.6407ZM9.7721 11.6407V14.9484H11.7721V11.6407H9.7721ZM9.7721 14.9484C9.7721 14.7767 9.84235 14.6174 9.95862 14.5041L11.3544 15.9366C11.6187 15.679 11.7721 15.3241 11.7721 14.9484H9.7721ZM9.95862 14.5041C10.074 14.3917 10.2251 14.333 10.3774 14.333V16.333C10.739 16.333 11.0909 16.1933 11.3544 15.9366L9.95862 14.5041ZM10.3774 14.333H8.48272V16.333H10.3774V14.333ZM8.48272 14.333C8.63499 14.333 8.7861 14.3917 8.90148 14.5041L7.50573 15.9366C7.76916 16.1933 8.12106 16.333 8.48272 16.333V14.333ZM8.90148 14.5041C9.01775 14.6174 9.08799 14.7767 9.08799 14.9484H7.08799C7.08799 15.3241 7.24141 15.679 7.50573 15.9366L8.90148 14.5041ZM9.08799 14.9484V11.6407H7.08799V14.9484H9.08799ZM8.08799 10.6407H7.06171V12.6407H8.08799V10.6407ZM7.06171 10.6407C7.214 10.6407 7.3651 10.6994 7.48048 10.8118L6.08473 12.2443C6.34816 12.501 6.70006 12.6407 7.06171 12.6407V10.6407ZM7.48048 10.8118C7.59675 10.9251 7.66699 11.0844 7.66699 11.2561H5.66699C5.66699 11.6318 5.82041 11.9867 6.08473 12.2443L7.48048 10.8118ZM7.66699 11.2561V9.40993H5.66699V11.2561H7.66699ZM7.66699 9.40993C7.66699 9.4944 7.64988 9.5774 7.61734 9.65396L5.77674 8.87153C5.70452 9.04142 5.66699 9.22445 5.66699 9.40993H7.66699ZM7.61734 9.65396C7.58482 9.73046 7.53787 9.79826 7.48048 9.85418L6.08473 8.42175C5.95403 8.5491 5.84893 8.7017 5.77674 8.87153L7.61734 9.65396ZM7.48048 9.85418C7.42315 9.91005 7.35648 9.95304 7.28493 9.98191L6.53639 8.12727C6.36906 8.19481 6.21537 8.29445 6.08473 8.42175L7.48048 9.85418ZM7.28493 9.98191C7.21343 10.0108 7.13766 10.0253 7.06171 10.0253V8.02532C6.8821 8.02532 6.70367 8.05976 6.53639 8.12727L7.28493 9.98191ZM7.06171 10.0253H8.08799V8.02532H7.06171V10.0253ZM9.08799 9.02532V8.02532H7.08799V9.02532H9.08799ZM9.08799 8.02544C9.08805 7.58512 9.26736 7.15745 9.59525 6.838L8.19962 5.40545C7.49113 6.09569 7.08811 7.03749 7.08799 8.02519L9.08799 8.02544ZM10.851 5.10224C10.0706 5.10224 9.31715 5.40407 8.75762 5.94928L10.1534 7.38171C10.3341 7.20563 10.5846 7.10224 10.851 7.10224V5.10224ZM8.75762 5.94928C8.1972 6.49534 7.87744 7.24157 7.87744 8.02532H9.87744C9.87744 7.78899 9.97354 7.55694 10.1534 7.38171L8.75762 5.94928ZM7.87744 8.02532V9.40993H9.87744V8.02532H7.87744ZM7.87744 9.40993C7.87744 9.23823 7.94768 9.07897 8.06395 8.96568L9.4597 10.3981C9.72402 10.1406 9.87744 9.78564 9.87744 9.40993H7.87744ZM8.06395 8.96568C8.17934 8.85325 8.33044 8.79455 8.48272 8.79455V10.7945C8.84437 10.7945 9.19627 10.6548 9.4597 10.3981L8.06395 8.96568ZM8.48272 8.79455H7.45644V10.7945H8.48272V8.79455ZM6.45644 9.79455V10.8715H8.45644V9.79455H6.45644ZM7.45644 11.8715H8.48272V9.87147H7.45644V11.8715ZM8.48272 11.8715C8.33044 11.8715 8.17934 11.8128 8.06395 11.7003L9.4597 10.2679C9.19627 10.0112 8.84437 9.87147 8.48272 9.87147V11.8715ZM8.06395 11.7003C7.94768 11.587 7.87744 11.4278 7.87744 11.2561H9.87744C9.87744 10.8804 9.72402 10.5255 9.4597 10.2679L8.06395 11.7003ZM7.87744 11.2561V14.5638H9.87744V11.2561H7.87744ZM8.87744 15.5638H9.98266V13.5638H8.87744V15.5638ZM10.9827 14.5638V11.2561H8.98266V14.5638H10.9827ZM10.9827 11.2561C10.9827 11.4278 10.9124 11.587 10.7961 11.7003L9.40039 10.2679C9.13608 10.5255 8.98266 10.8804 8.98266 11.2561H10.9827ZM10.7961 11.7003C10.6808 11.8128 10.5297 11.8715 10.3774 11.8715V9.87147C10.0157 9.87147 9.66383 10.0112 9.40039 10.2679L10.7961 11.7003ZM10.3774 11.8715H11.49V9.87147H10.3774V11.8715ZM12.4586 11.12L12.7349 10.0431L10.7977 9.54603L10.5213 10.6229L12.4586 11.12ZM11.7663 8.79455H10.3774V10.7945H11.7663V8.79455ZM10.3774 8.79455C10.5297 8.79455 10.6808 8.85325 10.7961 8.96568L9.40039 10.3981C9.66383 10.6548 10.0157 10.7945 10.3774 10.7945V8.79455ZM10.7961 8.96568C10.9124 9.07897 10.9827 9.23823 10.9827 9.40993H8.98266C8.98266 9.78564 9.13608 10.1406 9.40039 10.3981L10.7961 8.96568ZM10.9827 9.40993V8.02532H8.98266V9.40993H10.9827ZM10.9827 8.02532C10.9827 8.07461 10.9623 8.11648 10.9349 8.14321L9.53913 6.71078C9.18598 7.05488 8.98266 7.52719 8.98266 8.02532H10.9827ZM10.9349 8.14321C10.9083 8.16909 10.8777 8.17916 10.851 8.17916V6.17916C10.3638 6.17916 9.89139 6.36753 9.53913 6.71078L10.9349 8.14321ZM10.851 8.17916H11.8773V6.17916H10.851V8.17916ZM12.8773 7.17916V6.10224H10.8773V7.17916H12.8773ZM11.8773 5.10224H10.851V7.10224H11.8773V5.10224Z" fill="#43210C" mask="url(#path-2-inside-1_90_4140)"/>
</g>
</g>
</svg>
