<svg width="20" height="20" viewBox="0 0 20 20" fill="none" xmlns="http://www.w3.org/2000/svg">
<circle cx="10" cy="10" r="10" fill="white"/>
<path d="M9.66345 7.75684C8.98244 7.75684 8.32933 8.02695 7.84778 8.50774C7.36623 8.98854 7.0957 9.64065 7.0957 10.3206C7.0957 11.0005 7.36623 11.6527 7.84778 12.1335C8.32933 12.6142 8.98244 12.8844 9.66345 12.8844C10.3445 12.8844 10.9976 12.6142 11.4791 12.1335C11.9607 11.6527 12.2312 11.0005 12.2312 10.3206C12.2312 9.64065 11.9607 8.98854 11.4791 8.50774C10.9976 8.02695 10.3445 7.75684 9.66345 7.75684ZM9.66345 11.9856C9.22103 11.9856 8.79673 11.8101 8.48389 11.4978C8.17105 11.1854 7.9953 10.7618 7.9953 10.32C7.9953 9.87831 8.17105 9.45467 8.48389 9.14232C8.79673 8.82996 9.22103 8.65449 9.66345 8.65449C10.1059 8.65449 10.5302 8.82996 10.843 9.14232C11.1558 9.45467 11.3316 9.87831 11.3316 10.32C11.3316 10.7618 11.1558 11.1854 10.843 11.4978C10.5302 11.8101 10.1059 11.9856 9.66345 11.9856Z" fill="#43210C"/>
<path d="M12.332 8.26082C12.6626 8.26082 12.9306 7.99322 12.9306 7.66312C12.9306 7.33303 12.6626 7.06543 12.332 7.06543C12.0014 7.06543 11.7334 7.33303 11.7334 7.66312C11.7334 7.99322 12.0014 8.26082 12.332 8.26082Z" fill="#43210C"/>
<path d="M14.4021 7.05512C14.2736 6.72366 14.0771 6.42265 13.8253 6.17136C13.5736 5.92008 13.272 5.72404 12.94 5.59582C12.5515 5.45019 12.141 5.37145 11.7261 5.36295C11.1913 5.33966 11.0219 5.33301 9.66588 5.33301C8.30982 5.33301 8.13601 5.33301 7.60569 5.36295C7.19109 5.37102 6.78092 5.44978 6.39289 5.59582C6.06078 5.72389 5.75915 5.91987 5.50736 6.17118C5.25557 6.42249 5.05917 6.72357 4.93076 7.05512C4.78489 7.44302 4.70621 7.85288 4.69809 8.26714C4.67421 8.80052 4.66699 8.96962 4.66699 10.3241C4.66699 11.6781 4.66699 11.8505 4.69809 12.3811C4.70642 12.7959 4.78472 13.205 4.93076 13.5937C5.05953 13.9251 5.25612 14.2261 5.50797 14.4774C5.75983 14.7286 6.06141 14.9247 6.39345 15.053C6.78074 15.2045 7.19108 15.2889 7.6068 15.3025C8.14156 15.3258 8.31093 15.333 9.66699 15.333C11.0231 15.333 11.1969 15.333 11.7272 15.3025C12.1421 15.2941 12.5525 15.2155 12.9411 15.0702C13.273 14.9417 13.5745 14.7455 13.8262 14.4941C14.078 14.2428 14.2745 13.9418 14.4032 13.6103C14.5493 13.2222 14.6276 12.813 14.6359 12.3983C14.6598 11.8649 14.667 11.6958 14.667 10.3413C14.667 8.98681 14.667 8.81493 14.6359 8.28433C14.6294 7.86421 14.5503 7.44836 14.4021 7.05512ZM13.7257 12.3401C13.7222 12.6596 13.6637 12.9762 13.553 13.276C13.4696 13.4916 13.342 13.6874 13.1782 13.8508C13.0145 14.0142 12.8183 14.1415 12.6024 14.2247C12.3054 14.3347 11.9917 14.393 11.675 14.3971C11.1474 14.4215 10.9986 14.4276 9.64589 14.4276C8.29205 14.4276 8.15378 14.4276 7.61624 14.3971C7.29967 14.3932 6.98614 14.3349 6.68943 14.2247C6.47268 14.142 6.27572 14.0149 6.11129 13.8515C5.94686 13.6881 5.81861 13.492 5.73485 13.276C5.6257 12.9794 5.56732 12.6666 5.56215 12.3506C5.53827 11.8239 5.53272 11.6753 5.53272 10.3247C5.53272 8.97351 5.53272 8.83545 5.56215 8.29819C5.56574 7.97884 5.62415 7.66247 5.73485 7.36284C5.90422 6.92538 6.25129 6.58107 6.68943 6.41362C6.98629 6.30392 7.29973 6.24561 7.61624 6.24119C8.14434 6.21735 8.2926 6.2107 9.64589 6.2107C10.9992 6.2107 11.138 6.2107 11.675 6.24119C11.9917 6.245 12.3055 6.30333 12.6024 6.41362C12.8183 6.49694 13.0145 6.62443 13.1782 6.78789C13.3419 6.95136 13.4696 7.1472 13.553 7.36284C13.6622 7.65944 13.7206 7.97226 13.7257 8.28821C13.7496 8.81549 13.7557 8.96352 13.7557 10.3147C13.7557 11.6653 13.7557 11.8106 13.7319 12.3407H13.7257V12.3401Z" fill="#43210C"/>
</svg>
