<svg width="20" height="20" viewBox="0 0 20 20" fill="none" xmlns="http://www.w3.org/2000/svg">
<g id="Group 39">
<circle id="Ellipse 9" cx="10" cy="10" r="10" fill="white"/>
<path id="Vector" d="M14.9391 5.71772L15.3169 5.69233C15.3119 5.61682 15.2853 5.54447 15.2402 5.48432C15.1951 5.42417 15.1335 5.37891 15.0633 5.35419C14.993 5.32947 14.9172 5.32641 14.8452 5.34537C14.7733 5.36433 14.7084 5.40448 14.6588 5.46079L14.9391 5.71772ZM14.5628 7.99385C14.5628 7.89184 14.523 7.79401 14.4522 7.72189C14.3813 7.64976 14.2853 7.60924 14.1851 7.60924C14.0849 7.60924 13.9888 7.64976 13.9179 7.72189C13.8471 7.79401 13.8073 7.89184 13.8073 7.99385H14.5628ZM4.37823 14.1792V13.7946C4.29712 13.7945 4.21812 13.8209 4.15294 13.8701C4.08775 13.9192 4.03984 13.9884 4.01628 14.0675C3.99272 14.1465 3.99478 14.2311 4.02214 14.3089C4.04949 14.3866 4.1007 14.4534 4.16819 14.4992L4.37823 14.1792ZM5.13225 5.71772L5.4866 5.5831C5.46085 5.51288 5.4155 5.45184 5.35614 5.40751C5.29678 5.36317 5.22598 5.33746 5.15246 5.33353C5.07894 5.32961 5.00589 5.34765 4.9423 5.38543C4.87871 5.42321 4.82735 5.47908 4.79453 5.54618L5.13225 5.71772ZM8.14986 12.6407L8.41732 12.9123C8.46269 12.8659 8.4957 12.8085 8.51323 12.7456C8.53075 12.6826 8.53221 12.6162 8.51746 12.5525C8.5027 12.4888 8.47224 12.43 8.42893 12.3816C8.38563 12.3332 8.33092 12.2969 8.26999 12.2761L8.14986 12.6407ZM13.6078 6.46617L13.3283 6.72463L13.4643 6.8777L13.6645 6.84694L13.6078 6.46617ZM14.5628 5.7431C14.6014 6.34156 14.5651 6.70463 14.4699 6.97847C14.3777 7.24385 14.216 7.46231 13.9236 7.7477L14.4465 8.30307C14.7774 7.98 15.0328 7.66308 15.1824 7.23539C15.3282 6.8154 15.3584 6.32925 15.3169 5.69233L14.5628 5.7431ZM14.5628 8.55384V7.99385H13.8073V8.55461H14.5628V8.55384ZM9.28165 8.05692V8.79461H10.0372V8.05692H9.28165ZM9.28165 8.79461V9.17922H10.0372V8.79461H9.28165ZM11.9525 5.3331C11.6013 5.33331 11.2537 5.40392 10.9293 5.54091C10.605 5.67791 10.3104 5.8786 10.0622 6.13153C9.81407 6.38446 9.61728 6.68467 9.48309 7.01503C9.3489 7.34539 9.27994 7.69943 9.28014 8.05692H10.0357C10.0355 7.80038 10.0849 7.54631 10.1812 7.30923C10.2775 7.07214 10.4187 6.85669 10.5967 6.67518C10.7748 6.49367 10.9862 6.34965 11.219 6.25136C11.4517 6.15307 11.7012 6.10243 11.9532 6.10233V5.3331H11.9525ZM13.8065 8.55384C13.8073 11.8738 11.1682 14.5638 7.91413 14.5638V15.333C11.586 15.333 14.5628 12.2977 14.5628 8.55384H13.8065ZM4.77866 5.85233C5.18967 6.96924 6.73096 9.17922 9.65941 9.17922V8.41C7.15406 8.41 5.82961 6.51771 5.48584 5.5831L4.77866 5.85233ZM4.79453 5.54618C4.00349 7.15847 3.88184 8.72307 4.45681 10.0554C5.03026 11.3838 6.26404 12.4053 8.03048 13.0053L8.26999 12.2761C6.64181 11.7223 5.61202 10.8207 5.14812 9.74537C4.68573 8.67384 4.75297 7.35308 5.47073 5.88925L4.79453 5.54618ZM7.8824 12.3692C7.42757 12.833 6.06005 13.7946 4.37823 13.7946V14.5638C6.31693 14.5638 7.86653 13.4746 8.41732 12.9123L7.8824 12.3692ZM13.8881 6.20848C13.6439 5.93268 13.3454 5.71223 13.0121 5.56142C12.6787 5.41062 12.318 5.33283 11.9532 5.3331V6.10233C12.498 6.10233 12.9883 6.34156 13.3283 6.72463L13.8881 6.20848ZM13.6645 6.84694C14.2663 6.74683 14.8159 6.4388 15.2209 5.97464L14.6588 5.46079C14.3707 5.79213 13.9798 6.01287 13.5512 6.08617L13.6645 6.84694ZM4.16819 14.4992C5.40802 15.3407 6.70754 15.333 7.91413 15.333V14.5638C6.68261 14.5638 5.61126 14.5553 4.58827 13.8592L4.16819 14.4992Z" fill="#43210C"/>
</g>
</svg>
