<svg width="8" height="13" viewBox="0 0 8 13" fill="none" xmlns="http://www.w3.org/2000/svg">
<path fill-rule="evenodd" clip-rule="evenodd" d="M0.305421 7.20232C0.10986 7.01922 0 6.77091 0 6.512C0 6.25309 0.10986 6.00478 0.305421 5.82167L6.20652 0.298088C6.30275 0.204831 6.41786 0.130445 6.54513 0.0792721C6.67239 0.0280992 6.80928 0.00116347 6.94779 3.68659e-05C7.08629 -0.00108974 7.22366 0.0236155 7.35185 0.0727106C7.48005 0.121806 7.59652 0.194308 7.69447 0.285986C7.79241 0.377664 7.86987 0.486683 7.92232 0.60668C7.97477 0.726678 8.00116 0.855253 7.99996 0.9849C7.99876 1.11455 7.96998 1.24267 7.91531 1.3618C7.86064 1.48093 7.78117 1.58867 7.68154 1.67874L2.51794 6.512L7.68154 11.3453C7.87156 11.5294 7.9767 11.7761 7.97432 12.0321C7.97195 12.2881 7.86224 12.533 7.66883 12.714C7.47542 12.8951 7.21379 12.9977 6.94028 13C6.66677 13.0022 6.40326 12.9038 6.20652 12.7259L0.305421 7.20232Z" fill="white"/>
</svg>
