<svg width="8" height="13" viewBox="0 0 8 13" fill="none" xmlns="http://www.w3.org/2000/svg">
<path fill-rule="evenodd" clip-rule="evenodd" d="M7.69458 7.20232C7.89014 7.01922 8 6.77091 8 6.512C8 6.25309 7.89014 6.00478 7.69458 5.82167L1.79348 0.298088C1.69725 0.204831 1.58214 0.130445 1.45487 0.0792721C1.32761 0.0280992 1.19072 0.00116347 1.05221 3.68659e-05C0.913706 -0.00108974 0.776345 0.0236155 0.648145 0.0727106C0.519946 0.121806 0.403475 0.194308 0.305532 0.285986C0.207587 0.377664 0.13013 0.486683 0.0776792 0.60668C0.025229 0.726678 -0.00116444 0.855253 3.91006e-05 0.9849C0.00124264 1.11455 0.0300193 1.24267 0.0846896 1.3618C0.13936 1.48093 0.21883 1.58867 0.318461 1.67874L5.48206 6.512L0.318461 11.3453C0.128443 11.5294 0.0232992 11.7761 0.0256758 12.0321C0.0280523 12.2881 0.137759 12.533 0.331168 12.714C0.524577 12.8951 0.786212 12.9977 1.05972 13C1.33323 13.0022 1.59674 12.9038 1.79348 12.7259L7.69458 7.20232Z" fill="white"/>
</svg>
