<svg width="20" height="20" viewBox="0 0 20 20" fill="none" xmlns="http://www.w3.org/2000/svg">
<g id="Group 40">
<circle id="Ellipse 10" cx="10" cy="10" r="10" fill="#43210C"/>
<g id="Vector">
<mask id="path-2-inside-1_90_5279" fill="white">
<path fill-rule="evenodd" clip-rule="evenodd" d="M8.89744 6.1227C9.41554 5.61778 10.1183 5.33407 10.851 5.33398H12.272C12.3767 5.33398 12.4771 5.37451 12.5512 5.44664C12.6252 5.51876 12.6668 5.61659 12.6668 5.7186V7.56475C12.6668 7.66676 12.6252 7.76459 12.5512 7.83672C12.4771 7.90885 12.3767 7.94937 12.272 7.94937H10.851C10.8407 7.94937 10.8304 7.95136 10.8208 7.95522C10.8113 7.95909 10.8026 7.96476 10.7952 7.9719C10.7879 7.97904 10.7821 7.98752 10.7781 7.99686C10.7741 8.00619 10.7721 8.01619 10.7721 8.02629V9.02629H12.272C12.3321 9.02626 12.3913 9.03956 12.4452 9.06518C12.4992 9.0908 12.5464 9.12807 12.5833 9.17415C12.6203 9.22023 12.646 9.27391 12.6584 9.33111C12.6709 9.38831 12.6698 9.44752 12.6552 9.50424L12.1815 11.3504C12.1602 11.4336 12.1108 11.5075 12.0414 11.5603C11.972 11.6131 11.8864 11.6417 11.7984 11.6417H10.7721V14.9494C10.7721 15.0514 10.7305 15.1492 10.6565 15.2213C10.5825 15.2935 10.4821 15.334 10.3774 15.334H8.48272C8.37803 15.334 8.27763 15.2935 8.2036 15.2213C8.12958 15.1492 8.08799 15.0514 8.08799 14.9494V11.6417H7.06171C6.95703 11.6417 6.85663 11.6012 6.7826 11.529C6.70858 11.4569 6.66699 11.3591 6.66699 11.2571V9.41091C6.66699 9.3604 6.6772 9.31039 6.69704 9.26372C6.71688 9.21706 6.74595 9.17466 6.7826 9.13894C6.81926 9.10323 6.86277 9.0749 6.91066 9.05557C6.95855 9.03624 7.00988 9.02629 7.06171 9.02629H8.08799V8.02629C8.08808 7.31228 8.37924 6.62754 8.89744 6.1227ZM10.851 6.10322C10.3276 6.10322 9.82562 6.30582 9.45549 6.66647C9.08537 7.02712 8.87744 7.51626 8.87744 8.02629V9.41091C8.87744 9.51291 8.83585 9.61074 8.76183 9.68287C8.6878 9.755 8.5874 9.79552 8.48272 9.79552H7.45644V10.8724H8.48272C8.5874 10.8724 8.6878 10.913 8.76183 10.9851C8.83585 11.0572 8.87744 11.1551 8.87744 11.2571V14.5648H9.98266V11.2571C9.98266 11.1551 10.0242 11.0572 10.0983 10.9851C10.1723 10.913 10.2727 10.8724 10.3774 10.8724H11.49L11.7663 9.79552H10.3774C10.2727 9.79552 10.1723 9.755 10.0983 9.68287C10.0242 9.61074 9.98266 9.51291 9.98266 9.41091V8.02629C9.98266 7.80188 10.0742 7.58666 10.237 7.42797C10.3999 7.26929 10.6207 7.18014 10.851 7.18014H11.8773V6.10322H10.851Z"/>
</mask>
<path d="M8.89744 6.1227L9.59525 6.83898L9.59537 6.83886L8.89744 6.1227ZM10.851 5.33398V4.33398H10.8509L10.851 5.33398ZM12.272 7.94937V8.94937V7.94937ZM10.851 7.94937V8.94937V7.94937ZM10.7721 9.02629H9.7721V10.0263H10.7721V9.02629ZM12.272 9.02629V10.0263L12.2726 10.0263L12.272 9.02629ZM12.6584 9.33111L13.6355 9.11841L12.6584 9.33111ZM12.6552 9.50424L11.6866 9.25559L11.6866 9.25572L12.6552 9.50424ZM12.1815 11.3504L13.1501 11.599L13.1502 11.5989L12.1815 11.3504ZM11.7984 11.6417L11.7989 10.6417H11.7984V11.6417ZM10.7721 11.6417V10.6417H9.7721V11.6417H10.7721ZM8.08799 11.6417H9.08799V10.6417H8.08799V11.6417ZM7.06171 11.6417V12.6417V11.6417ZM6.66699 9.41091H7.66699H6.66699ZM8.08799 9.02629V10.0263H9.08799V9.02629H8.08799ZM8.08799 8.02629L7.08799 8.02617V8.02629H8.08799ZM7.45644 9.79552V8.79552H6.45644V9.79552H7.45644ZM7.45644 10.8724H6.45644V11.8724H7.45644V10.8724ZM8.87744 14.5648H7.87744V15.5648H8.87744V14.5648ZM9.98266 14.5648V15.5648H10.9827V14.5648H9.98266ZM9.98266 11.2571H10.9827H9.98266ZM11.49 10.8724V11.8724H12.2658L12.4586 11.121L11.49 10.8724ZM11.7663 9.79552L12.7349 10.044L13.0552 8.79552H11.7663V9.79552ZM10.851 7.18014V6.18014V7.18014ZM11.8773 7.18014V8.18014H12.8773V7.18014H11.8773ZM11.8773 6.10322H12.8773V5.10322H11.8773V6.10322ZM9.59537 6.83886C9.92409 6.5185 10.3753 6.33404 10.8512 6.33398L10.8509 4.33398C9.8612 4.3341 8.90699 4.71705 8.1995 5.40654L9.59537 6.83886ZM10.851 6.33398H12.272V4.33398H10.851V6.33398ZM12.272 6.33398C12.1198 6.33398 11.9687 6.27528 11.8533 6.16285L13.249 4.73042C12.9856 4.47373 12.6337 4.33398 12.272 4.33398V6.33398ZM11.8533 6.16285C11.737 6.04956 11.6668 5.8903 11.6668 5.7186H13.6668C13.6668 5.34289 13.5134 4.98797 13.249 4.73042L11.8533 6.16285ZM11.6668 5.7186V7.56475H13.6668V5.7186H11.6668ZM11.6668 7.56475C11.6668 7.39305 11.737 7.23379 11.8533 7.1205L13.249 8.55293C13.5134 8.29538 13.6668 7.94047 13.6668 7.56475H11.6668ZM11.8533 7.1205C11.9687 7.00807 12.1198 6.94937 12.272 6.94937V8.94937C12.6337 8.94937 12.9856 8.80963 13.249 8.55293L11.8533 7.1205ZM12.272 6.94937H10.851V8.94937H12.272V6.94937ZM10.851 6.94937C10.7129 6.94937 10.5755 6.97585 10.4466 7.02791L11.1951 8.88254C11.0853 8.92686 10.9685 8.94937 10.851 8.94937V6.94937ZM10.4466 7.02791C10.3176 7.07998 10.1987 7.15696 10.0973 7.25568L11.4931 8.68812C11.4064 8.77256 11.305 8.83821 11.1951 8.88254L10.4466 7.02791ZM10.0973 7.25568C9.99597 7.35447 9.91414 7.47315 9.85782 7.60564L11.6984 8.38807C11.65 8.50189 11.5798 8.60361 11.4931 8.68812L10.0973 7.25568ZM9.85782 7.60564C9.80147 7.73819 9.7721 7.88121 9.7721 8.02629H11.7721C11.7721 8.15117 11.7468 8.27419 11.6984 8.38807L9.85782 7.60564ZM9.7721 8.02629V9.02629H11.7721V8.02629H9.7721ZM10.7721 10.0263H12.272V8.02629H10.7721V10.0263ZM12.2726 10.0263C12.1848 10.0263 12.0972 10.0069 12.0162 9.96847L12.8743 8.16189C12.6854 8.0722 12.4794 8.02618 12.2715 8.02629L12.2726 10.0263ZM12.0162 9.96847C11.9351 9.92997 11.8618 9.87286 11.8031 9.79962L13.3636 8.54867C13.231 8.38328 13.0632 8.25163 12.8743 8.16189L12.0162 9.96847ZM11.8031 9.79962C11.7443 9.72628 11.702 9.63894 11.6813 9.5438L13.6355 9.11841C13.5899 8.90887 13.4963 8.71418 13.3636 8.54867L11.8031 9.79962ZM11.6813 9.5438C11.6606 9.44859 11.6624 9.34982 11.6866 9.25559L13.6238 9.7529C13.6771 9.54522 13.6811 9.32802 13.6355 9.11841L11.6813 9.5438ZM11.6866 9.25572L11.2129 11.1019L13.1502 11.5989L13.6238 9.75276L11.6866 9.25572ZM11.2129 11.1017C11.2485 10.9633 11.3292 10.8456 11.4362 10.7642L12.6466 12.3564C12.8925 12.1694 13.0718 11.904 13.1501 11.599L11.2129 11.1017ZM11.4362 10.7642C11.5428 10.6832 11.6705 10.6416 11.7989 10.6417L11.7978 12.6417C12.1024 12.6418 12.4012 12.5429 12.6466 12.3564L11.4362 10.7642ZM11.7984 10.6417H10.7721V12.6417H11.7984V10.6417ZM9.7721 11.6417V14.9494H11.7721V11.6417H9.7721ZM9.7721 14.9494C9.7721 14.7777 9.84235 14.6184 9.95862 14.5051L11.3544 15.9376C11.6187 15.68 11.7721 15.3251 11.7721 14.9494H9.7721ZM9.95862 14.5051C10.074 14.3927 10.2251 14.334 10.3774 14.334V16.334C10.739 16.334 11.0909 16.1942 11.3544 15.9376L9.95862 14.5051ZM10.3774 14.334H8.48272V16.334H10.3774V14.334ZM8.48272 14.334C8.63499 14.334 8.7861 14.3927 8.90148 14.5051L7.50573 15.9376C7.76916 16.1942 8.12106 16.334 8.48272 16.334V14.334ZM8.90148 14.5051C9.01775 14.6184 9.08799 14.7777 9.08799 14.9494H7.08799C7.08799 15.3251 7.24141 15.68 7.50573 15.9376L8.90148 14.5051ZM9.08799 14.9494V11.6417H7.08799V14.9494H9.08799ZM8.08799 10.6417H7.06171V12.6417H8.08799V10.6417ZM7.06171 10.6417C7.214 10.6417 7.3651 10.7004 7.48048 10.8128L6.08473 12.2452C6.34816 12.5019 6.70006 12.6417 7.06171 12.6417V10.6417ZM7.48048 10.8128C7.59675 10.9261 7.66699 11.0854 7.66699 11.2571H5.66699C5.66699 11.6328 5.82041 11.9877 6.08473 12.2452L7.48048 10.8128ZM7.66699 11.2571V9.41091H5.66699V11.2571H7.66699ZM7.66699 9.41091C7.66699 9.49537 7.64988 9.57838 7.61734 9.65494L5.77674 8.8725C5.70452 9.04239 5.66699 9.22542 5.66699 9.41091H7.66699ZM7.61734 9.65494C7.58482 9.73144 7.53787 9.79924 7.48048 9.85516L6.08473 8.42273C5.95403 8.55008 5.84893 8.70268 5.77674 8.8725L7.61734 9.65494ZM7.48048 9.85516C7.42315 9.91103 7.35648 9.95401 7.28493 9.98289L6.53639 8.12825C6.36906 8.19578 6.21537 8.29543 6.08473 8.42273L7.48048 9.85516ZM7.28493 9.98289C7.21343 10.0117 7.13766 10.0263 7.06171 10.0263V8.02629C6.8821 8.02629 6.70367 8.06073 6.53639 8.12825L7.28493 9.98289ZM7.06171 10.0263H8.08799V8.02629H7.06171V10.0263ZM9.08799 9.02629V8.02629H7.08799V9.02629H9.08799ZM9.08799 8.02641C9.08805 7.5861 9.26736 7.15842 9.59525 6.83898L8.19962 5.40643C7.49113 6.09666 7.08811 7.03846 7.08799 8.02617L9.08799 8.02641ZM10.851 5.10322C10.0706 5.10322 9.31715 5.40505 8.75762 5.95025L10.1534 7.38269C10.3341 7.2066 10.5846 7.10322 10.851 7.10322V5.10322ZM8.75762 5.95025C8.1972 6.49632 7.87744 7.24255 7.87744 8.02629H9.87744C9.87744 7.78997 9.97354 7.55792 10.1534 7.38269L8.75762 5.95025ZM7.87744 8.02629V9.41091H9.87744V8.02629H7.87744ZM7.87744 9.41091C7.87744 9.23921 7.94768 9.07995 8.06395 8.96666L9.4597 10.3991C9.72402 10.1415 9.87744 9.78662 9.87744 9.41091H7.87744ZM8.06395 8.96666C8.17934 8.85422 8.33044 8.79552 8.48272 8.79552V10.7955C8.84437 10.7955 9.19627 10.6558 9.4597 10.3991L8.06395 8.96666ZM8.48272 8.79552H7.45644V10.7955H8.48272V8.79552ZM6.45644 9.79552V10.8724H8.45644V9.79552H6.45644ZM7.45644 11.8724H8.48272V9.87245H7.45644V11.8724ZM8.48272 11.8724C8.33044 11.8724 8.17934 11.8137 8.06395 11.7013L9.4597 10.2689C9.19627 10.0122 8.84437 9.87245 8.48272 9.87245V11.8724ZM8.06395 11.7013C7.94768 11.588 7.87744 11.4288 7.87744 11.2571H9.87744C9.87744 10.8813 9.72402 10.5264 9.4597 10.2689L8.06395 11.7013ZM7.87744 11.2571V14.5648H9.87744V11.2571H7.87744ZM8.87744 15.5648H9.98266V13.5648H8.87744V15.5648ZM10.9827 14.5648V11.2571H8.98266V14.5648H10.9827ZM10.9827 11.2571C10.9827 11.4288 10.9124 11.588 10.7961 11.7013L9.40039 10.2689C9.13608 10.5264 8.98266 10.8813 8.98266 11.2571H10.9827ZM10.7961 11.7013C10.6808 11.8137 10.5297 11.8724 10.3774 11.8724V9.87245C10.0157 9.87245 9.66383 10.0122 9.40039 10.2689L10.7961 11.7013ZM10.3774 11.8724H11.49V9.87245H10.3774V11.8724ZM12.4586 11.121L12.7349 10.044L10.7977 9.547L10.5213 10.6239L12.4586 11.121ZM11.7663 8.79552H10.3774V10.7955H11.7663V8.79552ZM10.3774 8.79552C10.5297 8.79552 10.6808 8.85422 10.7961 8.96666L9.40039 10.3991C9.66383 10.6558 10.0157 10.7955 10.3774 10.7955V8.79552ZM10.7961 8.96666C10.9124 9.07995 10.9827 9.23921 10.9827 9.41091H8.98266C8.98266 9.78662 9.13608 10.1415 9.40039 10.3991L10.7961 8.96666ZM10.9827 9.41091V8.02629H8.98266V9.41091H10.9827ZM10.9827 8.02629C10.9827 8.07559 10.9623 8.11745 10.9349 8.14419L9.53913 6.71175C9.18598 7.05586 8.98266 7.52817 8.98266 8.02629H10.9827ZM10.9349 8.14419C10.9083 8.17006 10.8777 8.18014 10.851 8.18014V6.18014C10.3638 6.18014 9.89139 6.36851 9.53913 6.71175L10.9349 8.14419ZM10.851 8.18014H11.8773V6.18014H10.851V8.18014ZM12.8773 7.18014V6.10322H10.8773V7.18014H12.8773ZM11.8773 5.10322H10.851V7.10322H11.8773V5.10322Z" fill="white" mask="url(#path-2-inside-1_90_5279)"/>
</g>
</g>
</svg>
