<svg width="20" height="20" viewBox="0 0 20 20" fill="none" xmlns="http://www.w3.org/2000/svg">
<circle cx="10" cy="10" r="10" fill="#43210C"/>
<path d="M9.66345 7.75781C8.98244 7.75781 8.32933 8.02792 7.84778 8.50872C7.36623 8.98952 7.0957 9.64162 7.0957 10.3216C7.0957 11.0015 7.36623 11.6536 7.84778 12.1344C8.32933 12.6152 8.98244 12.8853 9.66345 12.8853C10.3445 12.8853 10.9976 12.6152 11.4791 12.1344C11.9607 11.6536 12.2312 11.0015 12.2312 10.3216C12.2312 9.64162 11.9607 8.98952 11.4791 8.50872C10.9976 8.02792 10.3445 7.75781 9.66345 7.75781ZM9.66345 11.9866C9.22103 11.9866 8.79673 11.8111 8.48389 11.4987C8.17105 11.1864 7.9953 10.7628 7.9953 10.321C7.9953 9.87929 8.17105 9.45565 8.48389 9.14329C8.79673 8.83094 9.22103 8.65546 9.66345 8.65546C10.1059 8.65546 10.5302 8.83094 10.843 9.14329C11.1558 9.45565 11.3316 9.87929 11.3316 10.321C11.3316 10.7628 11.1558 11.1864 10.843 11.4987C10.5302 11.8111 10.1059 11.9866 9.66345 11.9866Z" fill="white"/>
<path d="M12.332 8.26179C12.6626 8.26179 12.9306 7.9942 12.9306 7.6641C12.9306 7.334 12.6626 7.06641 12.332 7.06641C12.0014 7.06641 11.7334 7.334 11.7334 7.6641C11.7334 7.9942 12.0014 8.26179 12.332 8.26179Z" fill="white"/>
<path d="M14.4021 7.0561C14.2736 6.72464 14.0771 6.42363 13.8253 6.17234C13.5736 5.92105 13.272 5.72502 12.94 5.59679C12.5515 5.45117 12.141 5.37243 11.7261 5.36392C11.1913 5.34064 11.0219 5.33398 9.66588 5.33398C8.30982 5.33398 8.13601 5.33398 7.60569 5.36392C7.19109 5.372 6.78092 5.45075 6.39289 5.59679C6.06078 5.72487 5.75915 5.92085 5.50736 6.17216C5.25557 6.42346 5.05917 6.72455 4.93076 7.0561C4.78489 7.44399 4.70621 7.85385 4.69809 8.26812C4.67421 8.80149 4.66699 8.9706 4.66699 10.3251C4.66699 11.6791 4.66699 11.8515 4.69809 12.3821C4.70642 12.7968 4.78472 13.206 4.93076 13.5947C5.05953 13.9261 5.25612 14.2271 5.50797 14.4783C5.75983 14.7296 6.06141 14.9257 6.39345 15.054C6.78074 15.2055 7.19108 15.2898 7.6068 15.3035C8.14156 15.3268 8.31093 15.334 9.66699 15.334C11.0231 15.334 11.1969 15.334 11.7272 15.3035C12.1421 15.2951 12.5525 15.2165 12.9411 15.0712C13.273 14.9426 13.5745 14.7464 13.8262 14.4951C14.078 14.2437 14.2745 13.9427 14.4032 13.6113C14.5493 13.2232 14.6276 12.814 14.6359 12.3993C14.6598 11.8659 14.667 11.6968 14.667 10.3423C14.667 8.98779 14.667 8.81591 14.6359 8.2853C14.6294 7.86518 14.5503 7.44934 14.4021 7.0561ZM13.7257 12.3411C13.7222 12.6606 13.6637 12.9772 13.553 13.277C13.4696 13.4926 13.342 13.6884 13.1782 13.8518C13.0145 14.0152 12.8183 14.1425 12.6024 14.2256C12.3054 14.3357 11.9917 14.394 11.675 14.3981C11.1474 14.4225 10.9986 14.4286 9.64589 14.4286C8.29205 14.4286 8.15378 14.4286 7.61624 14.3981C7.29967 14.3942 6.98614 14.3359 6.68943 14.2256C6.47268 14.143 6.27572 14.0159 6.11129 13.8525C5.94686 13.6891 5.81861 13.493 5.73485 13.277C5.6257 12.9804 5.56732 12.6676 5.56215 12.3516C5.53827 11.8249 5.53272 11.6763 5.53272 10.3257C5.53272 8.97448 5.53272 8.83642 5.56215 8.29917C5.56574 7.97982 5.62415 7.66345 5.73485 7.36381C5.90422 6.92636 6.25129 6.58204 6.68943 6.4146C6.98629 6.3049 7.29973 6.24658 7.61624 6.24217C8.14434 6.21833 8.2926 6.21167 9.64589 6.21167C10.9992 6.21167 11.138 6.21167 11.675 6.24217C11.9917 6.24597 12.3055 6.30431 12.6024 6.4146C12.8183 6.49792 13.0145 6.6254 13.1782 6.78887C13.3419 6.95234 13.4696 7.14817 13.553 7.36381C13.6622 7.66041 13.7206 7.97324 13.7257 8.28919C13.7496 8.81646 13.7557 8.9645 13.7557 10.3157C13.7557 11.6663 13.7557 11.8116 13.7319 12.3416H13.7257V12.3411Z" fill="white"/>
</svg>
