<svg width="20" height="20" viewBox="0 0 20 20" fill="none" xmlns="http://www.w3.org/2000/svg">
<g id="Group 39">
<circle id="Ellipse 9" cx="10" cy="10" r="10" fill="#43210C"/>
<path id="Vector" d="M14.9391 5.71869L15.3169 5.69331C15.3119 5.6178 15.2853 5.54544 15.2402 5.4853C15.1951 5.42515 15.1335 5.37988 15.0633 5.35517C14.993 5.33045 14.9172 5.32738 14.8452 5.34634C14.7733 5.36531 14.7084 5.40546 14.6588 5.46177L14.9391 5.71869ZM14.5628 7.99482C14.5628 7.89282 14.523 7.79499 14.4522 7.72286C14.3813 7.65073 14.2853 7.61021 14.1851 7.61021C14.0849 7.61021 13.9888 7.65073 13.9179 7.72286C13.8471 7.79499 13.8073 7.89282 13.8073 7.99482H14.5628ZM4.37823 14.1801V13.7955C4.29712 13.7954 4.21812 13.8219 4.15294 13.8711C4.08775 13.9202 4.03984 13.9894 4.01628 14.0685C3.99272 14.1475 3.99478 14.2321 4.02214 14.3099C4.04949 14.3876 4.1007 14.4543 4.16819 14.5001L4.37823 14.1801ZM5.13225 5.71869L5.4866 5.58408C5.46085 5.51385 5.4155 5.45282 5.35614 5.40848C5.29678 5.36414 5.22598 5.33843 5.15246 5.33451C5.07894 5.33059 5.00589 5.34863 4.9423 5.3864C4.87871 5.42418 4.82735 5.48006 4.79453 5.54716L5.13225 5.71869ZM8.14986 12.6417L8.41732 12.9132C8.46269 12.8669 8.4957 12.8095 8.51323 12.7466C8.53075 12.6836 8.53221 12.6171 8.51746 12.5534C8.5027 12.4897 8.47224 12.4309 8.42893 12.3826C8.38563 12.3342 8.33092 12.2979 8.26999 12.2771L8.14986 12.6417ZM13.6078 6.46715L13.3283 6.72561L13.4643 6.87868L13.6645 6.84791L13.6078 6.46715ZM14.5628 5.74408C14.6014 6.34253 14.5651 6.70561 14.4699 6.97945C14.3777 7.24483 14.216 7.46329 13.9236 7.74867L14.4465 8.30405C14.7774 7.98098 15.0328 7.66406 15.1824 7.23637C15.3282 6.81637 15.3584 6.33022 15.3169 5.69331L14.5628 5.74408ZM14.5628 8.55482V7.99482H13.8073V8.55559H14.5628V8.55482ZM9.28165 8.0579V8.79558H10.0372V8.0579H9.28165ZM9.28165 8.79558V9.1802H10.0372V8.79558H9.28165ZM11.9525 5.33408C11.6013 5.33428 11.2537 5.4049 10.9293 5.54189C10.605 5.67888 10.3104 5.87958 10.0622 6.13251C9.81407 6.38544 9.61728 6.68565 9.48309 7.01601C9.3489 7.34637 9.27994 7.7004 9.28014 8.0579H10.0357C10.0355 7.80136 10.0849 7.54729 10.1812 7.3102C10.2775 7.07312 10.4187 6.85767 10.5967 6.67616C10.7748 6.49465 10.9862 6.35063 11.219 6.25234C11.4517 6.15405 11.7012 6.1034 11.9532 6.1033V5.33408H11.9525ZM13.8065 8.55482C13.8073 11.8748 11.1682 14.5648 7.91413 14.5648V15.334C11.586 15.334 14.5628 12.2986 14.5628 8.55482H13.8065ZM4.77866 5.85331C5.18967 6.97022 6.73096 9.1802 9.65941 9.1802V8.41097C7.15406 8.41097 5.82961 6.51868 5.48584 5.58408L4.77866 5.85331ZM4.79453 5.54716C4.00349 7.15945 3.88184 8.72405 4.45681 10.0563C5.03026 11.3848 6.26404 12.4063 8.03048 13.0063L8.26999 12.2771C6.64181 11.7232 5.61202 10.8217 5.14812 9.74635C4.68573 8.67482 4.75297 7.35406 5.47073 5.89023L4.79453 5.54716ZM7.8824 12.3702C7.42757 12.834 6.06005 13.7955 4.37823 13.7955V14.5648C6.31693 14.5648 7.86653 13.4755 8.41732 12.9132L7.8824 12.3702ZM13.8881 6.20946C13.6439 5.93365 13.3454 5.7132 13.0121 5.5624C12.6787 5.4116 12.318 5.33381 11.9532 5.33408V6.1033C12.498 6.1033 12.9883 6.34253 13.3283 6.72561L13.8881 6.20946ZM13.6645 6.84791C14.2663 6.74781 14.8159 6.43978 15.2209 5.97561L14.6588 5.46177C14.3707 5.79311 13.9798 6.01384 13.5512 6.08715L13.6645 6.84791ZM4.16819 14.5001C5.40802 15.3417 6.70754 15.334 7.91413 15.334V14.5648C6.68261 14.5648 5.61126 14.5563 4.58827 13.8602L4.16819 14.5001Z" fill="white"/>
</g>
</svg>
