<svg width="80" height="80" viewBox="0 0 80 80" fill="none" xmlns="http://www.w3.org/2000/svg">
<g id="logo">
<g id="Clip path group">
<mask id="mask0_90_4259" style="mask-type:luminance" maskUnits="userSpaceOnUse" x="0" y="0" width="80" height="80">
<g id="faa6d7cb8c">
<path id="Vector" d="M0 0H80V80H0V0Z" fill="white"/>
</g>
</mask>
<g mask="url(#mask0_90_4259)">
<g id="Group">
<g id="Clip path group_2">
<mask id="mask1_90_4259" style="mask-type:luminance" maskUnits="userSpaceOnUse" x="0" y="0" width="80" height="80">
<g id="b26c76aa44">
<path id="Vector_2" d="M40 0C17.9083 0 0 17.9083 0 40C0 62.0917 17.9083 80 40 80C62.0917 80 80 62.0917 80 40C80 17.9083 62.0917 0 40 0Z" fill="white"/>
</g>
</mask>
<g mask="url(#mask1_90_4259)">
<g id="Group_2">
<path id="Vector_3" d="M0 0H80V80H0V0Z" fill="white"/>
<path id="Vector_4" d="M40 0C17.9083 0 0 17.9083 0 40C0 62.0917 17.9083 80 40 80C62.0917 80 80 62.0917 80 40C80 17.9083 62.0917 0 40 0Z" stroke="#120900" stroke-width="1.11"/>
</g>
</g>
</g>
</g>
</g>
</g>
<g id="Clip path group_3">
<mask id="mask2_90_4259" style="mask-type:luminance" maskUnits="userSpaceOnUse" x="1" y="1" width="78" height="78">
<g id="266a3d454e">
<path id="Vector_5" d="M1.42114 1.4209H78.6211V78.6209H1.42114V1.4209Z" fill="white"/>
</g>
</mask>
<g mask="url(#mask2_90_4259)">
<g id="Group_3">
<g id="Clip path group_4">
<mask id="mask3_90_4259" style="mask-type:luminance" maskUnits="userSpaceOnUse" x="1" y="1" width="78" height="78">
<g id="27d89173b1">
<path id="Vector_6" d="M40.0219 1.4209C18.7031 1.4209 1.42188 18.7021 1.42188 40.0209C1.42188 61.3386 18.7031 78.6209 40.0219 78.6209C61.3396 78.6209 78.6219 61.3386 78.6219 40.0209C78.6219 18.7021 61.3396 1.4209 40.0219 1.4209Z" fill="white"/>
</g>
</mask>
<g mask="url(#mask3_90_4259)">
<g id="Group_4">
<path id="Vector_7" d="M40.0219 1.4209C18.7031 1.4209 1.42188 18.7021 1.42188 40.0209C1.42188 61.3386 18.7031 78.6209 40.0219 78.6209C61.3396 78.6209 78.6218 61.3386 78.6218 40.0209C78.6218 18.7021 61.3396 1.4209 40.0219 1.4209Z" stroke="#120900" stroke-width="0.555315"/>
</g>
</g>
</g>
</g>
</g>
</g>
<g id="Clip path group_5">
<mask id="mask4_90_4259" style="mask-type:luminance" maskUnits="userSpaceOnUse" x="9" y="9" width="62" height="62">
<g id="ad11b6f2d5">
<path id="Vector_8" d="M9.88354 9.88184H70.0835V70.0818H9.88354V9.88184Z" fill="white"/>
</g>
</mask>
<g mask="url(#mask4_90_4259)">
<g id="Group_5">
<g id="Clip path group_6">
<mask id="mask5_90_4259" style="mask-type:luminance" maskUnits="userSpaceOnUse" x="9" y="9" width="62" height="62">
<g id="5148757e8a">
<path id="Vector_9" d="M39.9835 9.88184C23.3606 9.88184 9.88354 23.3589 9.88354 39.9818C9.88354 56.6058 23.3606 70.0818 39.9835 70.0818C56.6075 70.0818 70.0835 56.6058 70.0835 39.9818C70.0835 23.3589 56.6075 9.88184 39.9835 9.88184Z" fill="white"/>
</g>
</mask>
<g mask="url(#mask5_90_4259)">
<g id="Group_6">
<path id="Vector_10" d="M39.9835 9.88184C23.3606 9.88184 9.88354 23.3589 9.88354 39.9818C9.88354 56.6058 23.3606 70.0819 39.9835 70.0819C56.6075 70.0819 70.0835 56.6058 70.0835 39.9818C70.0835 23.3589 56.6075 9.88184 39.9835 9.88184Z" stroke="#120900" stroke-width="1.10937"/>
</g>
</g>
</g>
</g>
</g>
</g>
<g id="Clip path group_7">
<mask id="mask6_90_4259" style="mask-type:luminance" maskUnits="userSpaceOnUse" x="10" y="10" width="59" height="59">
<g id="c9dd883308">
<path id="Vector_11" d="M10.9929 10.9951H68.9929V68.9951H10.9929V10.9951Z" fill="white"/>
</g>
</mask>
<g mask="url(#mask6_90_4259)">
<g id="Group_7">
<g id="Clip path group_8">
<mask id="mask7_90_4259" style="mask-type:luminance" maskUnits="userSpaceOnUse" x="10" y="10" width="59" height="59">
<g id="e04104ecd7">
<path id="Vector_12" d="M39.9922 10.9946C23.9755 10.9946 10.9922 23.978 10.9922 39.9946C10.9922 56.0103 23.9755 68.9946 39.9922 68.9946C56.0078 68.9946 68.9922 56.0103 68.9922 39.9946C68.9922 23.978 56.0078 10.9946 39.9922 10.9946Z" fill="white"/>
</g>
</mask>
<g mask="url(#mask7_90_4259)">
<g id="Group_8">
<path id="Vector_13" d="M39.9922 10.9946C23.9755 10.9946 10.9922 23.978 10.9922 39.9946C10.9922 56.0103 23.9755 68.9947 39.9922 68.9947C56.0078 68.9947 68.9922 56.0103 68.9922 39.9946C68.9922 23.978 56.0078 10.9946 39.9922 10.9946Z" stroke="#120900" stroke-width="0.55491"/>
</g>
</g>
</g>
</g>
</g>
</g>
<g id="Clip path group_9">
<mask id="mask8_90_4259" style="mask-type:luminance" maskUnits="userSpaceOnUse" x="23" y="54" width="35" height="11">
<g id="4041d7ba23">
<path id="Vector_14" d="M23.3574 54.5332H57.9991V64.5676H23.3574V54.5332Z" fill="white"/>
</g>
</mask>
<g mask="url(#mask8_90_4259)">
<g id="Group_9">
<path id="Vector_15" d="M53.3609 54.6895C54.337 54.9686 55.2849 55.303 56.1766 55.8613C56.6224 56.1405 57.0411 56.4749 57.3755 56.9217C57.5422 57.1447 57.6818 57.3957 57.7932 57.6749C57.8495 57.8145 57.8766 57.954 57.9047 58.1217V58.3447C57.9047 58.429 57.9047 58.5124 57.9047 58.5676C57.8495 59.1822 57.5151 59.7405 57.1526 60.1582C56.7901 60.577 56.3443 60.9395 55.9255 61.2467C55.0339 61.8613 54.0859 62.279 53.1109 62.6426C52.1349 63.0051 51.1589 63.2842 50.1557 63.5353C49.1526 63.7863 48.1484 63.954 47.1453 64.1207C45.1109 64.428 43.0755 64.5676 41.0411 64.5676C40.0099 64.5676 39.0057 64.5395 37.9745 64.4842C36.9432 64.428 35.9401 64.3447 34.9359 64.2051C32.9016 63.9259 30.8943 63.5353 28.9432 62.8655C27.9682 62.5301 26.9922 62.1395 26.1005 61.6092C25.6547 61.3311 25.2078 61.052 24.7901 60.6884C24.3724 60.3259 23.9818 59.9072 23.7307 59.377C23.6193 59.0978 23.5359 58.8197 23.5078 58.5124C23.5078 58.429 23.5078 58.3728 23.5078 58.2895V58.177C23.5078 58.1499 23.5078 58.0936 23.5078 58.0655C23.5359 57.8988 23.5641 57.7592 23.6193 57.6197C23.8141 57.0613 24.2047 56.6426 24.5953 56.3082C25.4318 55.6384 26.3786 55.2478 27.3266 54.9405C26.8807 55.1915 26.4349 55.4145 26.0443 55.7217C25.6266 56.0009 25.2359 56.3082 24.9297 56.6707C24.6224 57.0332 24.3443 57.4238 24.2328 57.8426C24.2047 57.954 24.2047 58.0655 24.2047 58.1499C24.2047 58.177 24.2047 58.177 24.2047 58.2332V58.3165C24.2047 58.3728 24.2047 58.429 24.2328 58.4561C24.2609 58.652 24.3443 58.8467 24.4557 59.0145C24.6786 59.377 25.013 59.6842 25.3755 59.9634C25.738 60.2426 26.1557 60.4655 26.6016 60.6613C27.4661 61.052 28.3859 61.3863 29.3339 61.6374C31.2286 62.1395 33.1807 62.4467 35.1318 62.6426C36.1068 62.7259 37.0828 62.8092 38.0859 62.8655C39.062 62.9207 40.0651 62.9207 41.0411 62.9207C43.0203 62.9207 44.9995 62.8092 46.9505 62.5863C48.9016 62.3634 50.8526 61.9999 52.7203 61.4426C53.6401 61.1634 54.5599 60.8009 55.3682 60.354C55.7859 60.1311 56.1484 59.852 56.4828 59.5447C56.7901 59.2374 57.0411 58.8749 57.1245 58.5124C57.2078 58.1217 57.1245 57.703 56.9016 57.3405C56.6786 56.9499 56.3443 56.6145 55.9536 56.3082C55.5911 56.0009 55.1734 55.7217 54.7276 55.4707C54.2536 55.1363 53.8078 54.9124 53.3609 54.6895Z" fill="#120900"/>
</g>
</g>
</g>
<g id="Clip path group_10">
<mask id="mask9_90_4259" style="mask-type:luminance" maskUnits="userSpaceOnUse" x="54" y="39" width="9" height="14">
<g id="5ae0c15b06">
<path id="Vector_16" d="M54.0007 39.6006H62.9591V52.4006H54.0007V39.6006Z" fill="white"/>
</g>
</mask>
<g mask="url(#mask9_90_4259)">
<g id="Group_10">
<path id="Vector_17" d="M57.4609 39.7056C57.9067 39.7056 58.3807 39.7608 58.7984 39.7889C59.2171 39.8451 59.6348 39.9004 60.0536 40.0118C60.4713 40.1233 60.889 40.2629 61.3078 40.4587C61.7255 40.6535 62.1442 40.9326 62.4505 41.3795C62.7848 41.7983 62.9244 42.3566 62.9244 42.8587C62.9244 43.3608 62.7567 43.8066 62.5901 44.1983C62.2276 44.9795 61.7255 45.6493 61.2244 46.2629C60.1651 47.491 58.9942 48.5233 57.7671 49.4993C56.5411 50.4764 55.2869 51.3972 54.0046 52.2899C55.2036 51.2858 56.3734 50.2535 57.489 49.1649C58.6036 48.0764 59.663 46.9608 60.5546 45.7045C61.0005 45.091 61.3911 44.4493 61.614 43.7795C61.7255 43.4441 61.7817 43.1379 61.7536 42.8306C61.7255 42.5514 61.6421 42.3285 61.4473 42.1326C61.0848 41.742 60.4161 41.5191 59.7463 41.4347C59.4119 41.3795 59.0494 41.3514 58.6869 41.3514C58.3255 41.3514 57.7671 41.4076 57.4328 41.4629L57.4609 39.7056Z" fill="#120900"/>
</g>
</g>
</g>
<path id="Vector_18" d="M49.3194 56.6709C49.9329 56.7542 50.5735 56.8938 51.1589 57.1449C51.4662 57.2563 51.7725 57.3959 52.0235 57.6469C52.1631 57.7594 52.2746 57.9542 52.3027 58.1771V58.2615C52.3027 58.2615 52.3027 58.2615 52.3027 58.2896V58.3449C52.3027 58.373 52.3027 58.4011 52.3027 58.4292C52.3027 58.4563 52.3027 58.4844 52.2746 58.5126C52.2464 58.624 52.1912 58.7074 52.135 58.7917C51.9121 59.1261 51.6058 59.2938 51.3266 59.4615C51.0204 59.6282 50.7412 59.7407 50.435 59.8803C49.8214 60.1032 49.2079 60.2709 48.5673 60.4105C47.3131 60.6886 46.0579 60.8844 44.7766 60.9959C43.5214 61.1074 42.2391 61.1636 40.9569 61.1917C39.6756 61.1917 38.4204 61.1636 37.1381 61.0521C35.8839 60.9396 34.6016 60.773 33.3475 60.5219C32.7339 60.3824 32.0933 60.2428 31.4798 60.0188C31.1735 59.9074 30.8673 59.7959 30.56 59.6563C30.2537 59.5167 29.9746 59.3771 29.6964 59.1542C29.5569 59.0428 29.4173 58.9313 29.3058 58.7636C29.1944 58.5959 29.1391 58.373 29.1662 58.1501C29.2225 57.9261 29.3339 57.7594 29.4735 57.6469C29.6121 57.5355 29.7516 57.424 29.8912 57.3688C30.4766 57.0615 31.0902 56.9219 31.7027 56.8105C31.3964 56.9219 31.1173 57.0334 30.8391 57.173C30.56 57.3126 30.2819 57.4521 30.0308 57.6199C29.9194 57.7032 29.8079 57.8146 29.6964 57.899C29.6121 58.0105 29.5569 58.1219 29.5569 58.2053C29.5287 58.4011 29.7235 58.5959 29.9746 58.7355C30.4485 59.0428 31.0621 59.2105 31.6475 59.3501C32.2329 59.4896 32.8464 59.6011 33.4589 59.6844C35.9121 60.0188 38.4204 60.1313 40.9016 60.1313C43.3829 60.1032 45.8912 59.9917 48.3444 59.6011C48.9569 59.4896 49.5423 59.3771 50.1558 59.2105C50.435 59.1261 50.7412 59.0428 50.9923 58.9032C51.2704 58.7917 51.5214 58.624 51.661 58.4563C51.6891 58.4011 51.7173 58.373 51.7444 58.3167L51.7725 58.2615V58.2053V58.1771C51.7725 58.0938 51.7173 57.9824 51.6329 57.8709C51.4662 57.6751 51.2152 57.5084 50.936 57.3407C50.5183 57.1178 49.9329 56.8938 49.3194 56.6709Z" fill="#120900"/>
<path id="Vector_19" d="M54.6436 38.2261C54.6717 38.4491 54.5322 38.7001 54.3936 38.8678C54.2259 39.0355 54.0582 39.2022 53.8634 39.3147C53.4728 39.5657 53.027 39.7605 52.6092 39.9282C51.7447 40.2626 50.8249 40.5136 49.9332 40.7095C48.1217 41.1001 46.254 41.3511 44.4145 41.4907C40.7072 41.7699 36.9717 41.7136 33.2645 41.2678C32.3447 41.1282 31.4249 40.9886 30.5051 40.7657C29.5853 40.5418 28.6655 40.3188 27.7728 39.872C27.5499 39.7605 27.327 39.6491 27.104 39.4813C26.8811 39.3147 26.6582 39.147 26.4905 38.8678C26.4072 38.7282 26.3238 38.5605 26.2957 38.3657C26.2957 38.3095 26.2957 38.2813 26.2676 38.2261V38.0866C26.2676 38.0584 26.2676 37.9751 26.2957 37.9188C26.2957 37.8636 26.3238 37.8355 26.3238 37.7793C26.4634 37.4168 26.6863 37.2209 26.9092 37.0261C27.3551 36.6907 27.8009 36.4959 28.2467 36.3282C28.6926 36.1616 29.1665 36.022 29.6124 35.9095C31.453 35.4636 33.2926 35.2678 35.1603 35.1563C36.9999 35.0449 38.8676 35.0449 40.7072 35.1563C38.8676 35.2678 37.027 35.4074 35.1874 35.6584C34.2676 35.7699 33.3759 35.9095 32.4842 36.0772C31.5915 36.2449 30.6999 36.4397 29.8353 36.6907C29.4176 36.8303 28.9717 36.9699 28.5811 37.1376C28.1915 37.3053 27.7728 37.5001 27.4947 37.7511C27.3551 37.8636 27.2436 38.0032 27.2155 38.0866V38.1699C27.2155 38.198 27.2436 38.2543 27.2717 38.3095C27.3551 38.4209 27.4947 38.5334 27.6613 38.6449C27.829 38.7563 27.9957 38.8397 28.1915 38.9241C28.9717 39.2866 29.8353 39.5095 30.728 39.7053C31.6197 39.9001 32.5113 40.0397 33.404 40.1511C35.2155 40.4022 37.027 40.5418 38.8676 40.598C40.7072 40.6813 42.5186 40.6532 44.3582 40.598C46.1978 40.5136 48.0103 40.4022 49.8217 40.123C50.7134 39.9845 51.6332 39.8168 52.4978 39.5657C52.9436 39.4261 53.3613 39.2866 53.7801 39.0626C53.9749 38.9511 54.1697 38.8397 54.3374 38.7001C54.5051 38.672 54.6436 38.4772 54.6436 38.2261Z" fill="#120900"/>
<path id="Vector_20" d="M40.7337 13.251C41.1524 13.7541 41.4587 14.3676 41.5983 15.0374C41.7378 15.6791 41.6816 16.377 41.4587 17.0187C41.2358 17.6604 40.8451 18.2187 40.3993 18.7208C39.9535 19.2229 39.4243 19.6416 38.867 20.0041C37.7514 20.7572 36.5524 21.3156 35.2983 21.7906C34.6858 22.0416 34.0441 22.2364 33.4306 22.4593C32.8181 22.6833 32.1764 22.8781 31.5639 23.102C30.9503 23.3249 30.3368 23.576 29.7233 23.827C29.1108 24.0781 28.5253 24.3291 27.9681 24.6364C27.6889 24.776 27.4097 24.9437 27.1597 25.1385C26.9087 25.3062 26.6576 25.5291 26.4899 25.7249C26.4066 25.8364 26.3514 25.9479 26.3233 26.0593C26.2951 26.1708 26.3233 26.2551 26.3785 26.3666C26.4899 26.5614 26.7128 26.7572 26.992 26.9249C27.5212 27.2312 28.1347 27.4551 28.7483 27.6781C29.3618 27.8729 30.0024 28.0406 30.616 28.2083C31.8983 28.5156 33.1806 28.7666 34.4628 28.9895C37.0545 29.4364 39.6472 29.7989 42.267 30.1614C43.5774 30.3572 44.8878 30.552 46.1691 30.8312C46.8108 30.9708 47.4514 31.1104 48.0931 31.3051C48.7337 31.501 49.3753 31.7239 49.9889 32.0593C50.2951 32.226 50.6014 32.4218 50.8243 32.7562C50.9358 32.9239 51.0201 33.1468 50.992 33.3708C50.9639 33.5937 50.8806 33.7895 50.7691 33.9281C50.5462 34.2354 50.2389 34.4312 49.9608 34.626C49.6816 34.8218 49.3753 34.9614 49.0681 35.101C47.842 35.6583 46.5878 36.0218 45.3056 36.3843C44.0233 36.7187 42.741 36.9979 41.4587 37.2489C40.1764 37.4999 38.867 37.7239 37.5566 37.8906C40.1483 37.3885 42.7128 36.8301 45.2222 36.077C46.4764 35.7145 47.7306 35.2958 48.9014 34.7374C49.1795 34.5979 49.4868 34.4312 49.7378 34.2635C49.9889 34.0958 50.2389 33.901 50.4066 33.677C50.5733 33.4541 50.6014 33.2312 50.4347 33.0072C50.2951 32.7843 50.016 32.6166 49.7649 32.477C49.2076 32.1989 48.5951 31.9749 47.9816 31.8083C47.3681 31.6406 46.7274 31.501 46.0858 31.3614C44.8035 31.1104 43.4941 30.9145 42.2118 30.7479C39.591 30.4124 36.9712 30.0781 34.3785 29.6312C33.0691 29.4083 31.7868 29.1572 30.4764 28.8499C29.8347 28.6822 29.1941 28.5156 28.5535 28.3197C27.9118 28.0968 27.2712 27.8729 26.6858 27.5104C26.3785 27.3156 26.0722 27.0916 25.8774 26.701C25.766 26.5062 25.7378 26.2551 25.7931 26.0312C25.8493 25.8083 25.9326 25.6135 26.0722 25.4739C26.3233 25.1666 26.6014 24.9437 26.8806 24.7479C27.1597 24.5531 27.466 24.3854 27.7722 24.2458C28.9712 23.6322 30.2253 23.1854 31.4524 22.7385C32.0649 22.5156 32.7066 22.3208 33.3472 22.1249C33.9889 21.9291 34.6014 21.7343 35.2149 21.5114C36.441 21.0645 37.6399 20.5343 38.7545 19.8364C39.3128 19.502 39.8139 19.1114 40.2878 18.6364C40.7337 18.1906 41.1243 17.6604 41.3753 17.0468C41.6264 16.4604 41.6816 15.7906 41.5701 15.1489C41.4035 14.3958 41.1243 13.7812 40.7337 13.251Z" fill="#120900"/>
<path id="Vector_21" d="M42.2944 16.4604C42.685 16.9344 42.9632 17.4927 43.0746 18.0792C43.2142 18.6646 43.158 19.3063 42.935 19.8927C42.7402 20.4792 42.3777 21.0084 41.96 21.4552C41.5413 21.9021 41.0684 22.2927 40.5663 22.6271C39.5632 23.2969 38.4475 23.8271 37.3048 24.274C36.7475 24.4969 36.1621 24.6927 35.6048 24.8875C35.0465 25.0834 34.4621 25.2782 33.9038 25.5011C32.7892 25.9198 31.6746 26.3667 30.6152 26.8969C30.3642 27.0365 30.1132 27.1761 29.8621 27.3427C29.6392 27.5104 29.4163 27.6782 29.2496 27.8729C29.1652 27.9854 29.1382 28.0688 29.11 28.1521C29.0819 28.2365 29.11 28.3198 29.1382 28.4032C29.2215 28.5709 29.4444 28.7667 29.6673 28.9063C30.1413 29.1844 30.6986 29.4084 31.2559 29.575C31.8132 29.7427 32.3986 29.9104 32.984 30.05C34.1548 30.3292 35.3257 30.5521 36.4965 30.7479C38.8663 31.1657 41.235 31.5011 43.6319 31.8084C44.8309 31.975 46.0298 32.1709 47.2007 32.4219C47.7861 32.5615 48.3986 32.7011 48.984 32.8677C49.5694 33.0354 50.1548 33.2594 50.7121 33.5657C50.9913 33.7334 51.2694 33.9011 51.4934 34.2073C51.6048 34.375 51.66 34.5709 51.66 34.7657C51.6319 34.9615 51.5486 35.1563 51.4371 35.2959C51.2142 35.575 50.9632 35.7698 50.685 35.9375C50.4059 36.1052 50.1548 36.2448 49.8757 36.3844C48.7611 36.8865 47.5902 37.249 46.4194 37.5563C45.2486 37.8636 44.0788 38.1146 42.8798 38.3375C41.709 38.5604 40.51 38.7563 39.3121 38.924C41.6809 38.4771 44.0225 37.9469 46.3361 37.249C47.4788 36.9146 48.6215 36.524 49.709 36.0219C49.9882 35.8823 50.2382 35.7427 50.4611 35.6032C50.7121 35.4354 50.935 35.2677 51.0746 35.073C51.2142 34.849 51.2423 34.6823 51.1027 34.4865C50.9632 34.2917 50.7402 34.124 50.4892 34.0125C49.9882 33.7615 49.4298 33.5657 48.8444 33.3979C48.2871 33.2313 47.7017 33.1198 47.1163 32.9802C45.9454 32.7563 44.7475 32.5615 43.5767 32.4219C41.1798 32.1146 38.7819 31.8084 36.4132 31.3896C35.2142 31.1657 34.0434 30.9427 32.8455 30.6636C32.26 30.524 31.6746 30.3573 31.0892 30.1615C30.5038 29.9667 29.9184 29.7427 29.3611 29.4084C29.0819 29.2407 28.8027 29.0177 28.608 28.6542C28.5246 28.4875 28.4684 28.2365 28.5246 28.0407C28.5798 27.8459 28.6642 27.65 28.7757 27.5104C28.9986 27.2313 29.2496 27.0365 29.5277 26.8407C29.7788 26.674 30.058 26.5063 30.3361 26.3667C31.4236 25.8084 32.5663 25.3896 33.709 24.999C34.2944 24.8042 34.8517 24.6084 35.4371 24.4407C36.0225 24.274 36.5798 24.0782 37.1371 23.8834C38.2527 23.4646 39.3673 22.9896 40.3715 22.3479C40.8725 22.0417 41.3465 21.6782 41.7652 21.2604C42.183 20.8417 42.5455 20.3667 42.7684 19.8094C43.2423 18.749 43.0194 17.4094 42.2944 16.4604Z" fill="#120900"/>
<path id="Vector_22" d="M50.6291 34.543C50.4614 34.6826 50.2947 34.794 50.1552 34.8773C49.9322 35.0169 49.6812 35.1565 49.4031 35.2961C49.5979 35.3242 49.7645 35.3794 49.9604 35.4076C50.0718 35.3523 50.1833 35.2961 50.2666 35.2128C50.5177 35.0451 50.6854 34.9055 50.7687 34.7659C50.7968 34.7107 50.7968 34.7107 50.8239 34.6826C50.8239 34.6826 50.8239 34.6826 50.8239 34.6544C50.7687 34.6826 50.7406 34.6263 50.6291 34.543Z" fill="#603913"/>
<g id="Clip path group_11">
<mask id="mask10_90_4259" style="mask-type:luminance" maskUnits="userSpaceOnUse" x="23" y="32" width="35" height="28">
<g id="2e13ccdc54">
<path id="Vector_23" d="M23.3574 32.667H57.4658V59.867H23.3574V32.667Z" fill="white"/>
</g>
</mask>
<g mask="url(#mask10_90_4259)">
<g id="Group_11">
<path id="Vector_24" d="M57.2079 38.3657C57.2079 36.5522 55.1173 35.1563 51.9954 34.2074C52.0788 34.4032 52.1069 34.6261 52.1069 34.822C52.0788 35.073 51.9954 35.3241 51.8007 35.547C51.7173 35.6584 51.6329 35.7428 51.5496 35.8261C54.1142 36.6074 55.5361 37.5563 55.5361 38.3376C55.5361 39.9282 49.5986 42.2438 40.2882 42.2438C30.9788 42.2438 25.0413 39.9282 25.0413 38.3376C25.0413 36.747 30.9788 34.4313 40.2882 34.4313C42.8527 34.4313 45.1663 34.598 47.1736 34.9053C47.7027 34.7105 48.2048 34.5147 48.7069 34.2636C48.9298 34.1522 49.1246 34.0407 49.3194 33.9282C49.1527 33.873 48.985 33.8168 48.7902 33.7616C48.26 33.622 47.7027 33.4824 47.0902 33.3709C46.2257 33.2032 45.3059 33.0355 44.2184 32.8959C42.9361 32.8126 41.6267 32.7563 40.3163 32.7563C31.8986 32.7563 23.3965 34.6824 23.3965 38.3376C23.3965 38.4772 23.3965 38.5886 23.4246 38.7001H23.3965C23.3965 41.1834 23.7309 43.6949 24.4559 46.0949C24.8184 47.2949 25.2642 48.4668 25.8215 49.6105C26.3788 50.7272 27.0204 51.8157 27.7725 52.848C29.2507 54.8845 31.1454 56.6709 33.3475 57.9261C35.5496 59.1824 38.1142 59.8803 40.6788 59.8522C43.2434 59.8522 45.7517 59.0709 47.8986 57.7866C50.0725 56.5032 51.884 54.6897 53.2777 52.6522C54.6996 50.6157 55.7027 48.3272 56.3444 45.9553C56.6507 44.7834 56.8736 43.5553 57.0132 42.3563C57.1246 41.2116 57.1527 40.0678 57.1246 38.9241C57.1798 38.7563 57.2079 38.5605 57.2079 38.3657ZM55.8142 45.8157C55.0621 48.0761 53.9465 50.2251 52.4975 52.0949C51.0757 53.9636 49.2923 55.5824 47.2569 56.6991C46.56 57.0897 45.8079 57.4241 45.0548 57.6751C41.6538 58.3168 37.3059 57.1178 37.3059 57.1178C43.2986 57.9543 47.6194 55.722 47.6194 55.722C42.4621 56.9782 37.1663 54.6063 37.1663 54.6063C43.2986 56.4199 50.8246 52.2345 50.8246 52.2345C43.5777 54.7459 37.0267 51.5366 37.0267 51.5366C44.4142 53.6293 51.9673 48.9418 51.9673 48.9418C46.2538 52.0105 36.8882 48.8855 36.8882 48.8855C47.8986 51.0897 53.334 45.2303 53.334 45.2303C45.334 49.3043 36.86 46.1793 36.86 46.1793C42.4902 47.5741 49.1809 45.0626 52.609 42.6907C53.1111 42.4949 53.6121 42.272 54.1142 42.0209C54.8111 41.6866 55.4798 41.2678 56.0371 40.7376C56.3163 40.4866 56.5944 40.1793 56.7902 39.8449C56.9298 39.6209 57.0132 39.3699 57.0684 39.1188C57.0684 39.0907 57.0965 39.0626 57.0965 39.0355C56.985 41.3793 56.5673 43.6678 55.8142 45.8157Z" fill="#603913"/>
</g>
</g>
</g>
<g id="Clip path group_12">
<mask id="mask11_90_4259" style="mask-type:luminance" maskUnits="userSpaceOnUse" x="25" y="13" width="27" height="27">
<g id="7f892cf6db">
<path id="Vector_25" d="M25.468 13.168H51.868V39.0669H25.468V13.168Z" fill="white"/>
</g>
</mask>
<g mask="url(#mask11_90_4259)">
<g id="Group_12">
<path id="Vector_26" d="M51.5214 34.2076C51.3547 33.9565 51.1037 33.7617 50.8808 33.6221C50.936 33.5107 50.9641 33.3982 50.9922 33.2596C51.0204 33.0357 50.936 32.8128 50.8245 32.6451C50.6016 32.3107 50.2954 32.1148 49.9891 31.9471C49.3756 31.6128 48.7339 31.3898 48.0933 31.194C47.4516 30.9992 46.811 30.8596 46.1693 30.7201C44.86 30.4409 43.5777 30.2451 42.2672 30.0503C39.6475 29.7148 37.0547 29.3523 34.4631 28.8784C33.1808 28.6544 31.8704 28.4034 30.6162 28.0971C30.1975 27.9857 29.7516 27.8732 29.3339 27.7617C29.4735 27.5951 29.6683 27.4273 29.8631 27.2878C30.086 27.1201 30.337 26.9805 30.6162 26.8409C31.6475 26.2826 32.7902 25.8648 33.9047 25.4461C34.4631 25.2503 35.0475 25.0273 35.6058 24.8315C36.1631 24.6367 36.7485 24.4409 37.3058 24.218C38.4485 23.7721 39.536 23.269 40.5672 22.5721C41.0693 22.2367 41.5422 21.8461 41.961 21.4003C42.3787 20.9534 42.7412 20.4232 42.936 19.8367C43.1589 19.2513 43.187 18.6096 43.0756 18.0232C42.936 17.4378 42.686 16.8513 42.2954 16.4044C43.0204 17.3534 43.2433 18.693 42.7975 19.7815C42.5745 20.3398 42.212 20.8138 41.7933 21.2326C41.3756 21.6513 40.9016 22.0138 40.3995 22.3211C39.3964 22.9628 38.3089 23.4367 37.1662 23.8555C36.6089 24.0503 36.0235 24.2461 35.4662 24.4138C34.8808 24.5805 34.3235 24.7763 33.7381 24.9711C32.5954 25.3617 31.4527 25.7805 30.3652 26.3388C30.086 26.4784 29.8079 26.6461 29.5568 26.8128C29.3058 26.9805 29.0266 27.1763 28.8037 27.4826C28.7766 27.5107 28.7485 27.5388 28.7204 27.5951H28.6922C28.0797 27.3992 27.4662 27.1763 26.937 26.8409C26.686 26.6742 26.435 26.4784 26.3235 26.2826C26.2672 26.1711 26.2672 26.0878 26.2672 25.9763C26.2954 25.8648 26.3516 25.7523 26.435 25.6409C26.6016 25.418 26.8527 25.2232 27.1037 25.0555C27.3547 24.8878 27.6329 24.7201 27.912 24.5534C28.4693 24.2461 29.0829 23.9951 29.6683 23.744C30.2818 23.493 30.8943 23.269 31.5079 23.018C32.1214 22.7951 32.7339 22.5721 33.3756 22.3763C33.9891 22.1815 34.6297 21.9576 35.2433 21.7065C36.4693 21.2326 37.6964 20.6742 38.811 19.9211C39.3683 19.5576 39.8985 19.1117 40.3443 18.6367C40.7902 18.1346 41.1808 17.5773 41.4037 16.9346C41.6266 16.293 41.6818 15.5961 41.5422 14.9534C41.4037 14.3117 41.0964 13.6982 40.6787 13.168C41.0693 13.6982 41.3475 14.3117 41.4308 14.9534C41.5422 15.5961 41.4589 16.2648 41.236 16.8513C40.985 17.4648 40.5954 17.9951 40.1485 18.4419C39.7027 18.8888 39.1735 19.3065 38.6162 19.6419C37.5287 20.3398 36.3027 20.8701 35.0756 21.3159C34.4631 21.5388 33.8495 21.7346 33.2079 21.9294C32.5672 22.1253 31.9537 22.3211 31.3131 22.544C30.0589 22.9898 28.8037 23.4367 27.6329 24.0503C27.3266 24.218 27.0485 24.3857 26.7412 24.5534C26.4631 24.7482 26.1839 24.9711 25.9329 25.2784C25.8214 25.418 25.71 25.6138 25.6547 25.8367C25.5985 26.0596 25.6547 26.3107 25.7381 26.5065C25.9329 26.8971 26.2402 27.1201 26.5464 27.3159C27.16 27.6784 27.7725 27.9294 28.4141 28.1242C28.4141 28.2919 28.4422 28.4596 28.5256 28.5992C28.7204 28.9617 28.9995 29.1576 29.2777 29.3523C29.835 29.6878 30.4204 29.9107 31.0058 30.1055C31.5912 30.3013 32.1766 30.4409 32.762 30.6086C33.9329 30.8878 35.1318 31.1388 36.3297 31.3336C38.6995 31.7523 41.0964 32.0596 43.4943 32.3659C44.6922 32.5336 45.8631 32.7013 47.0339 32.9242C47.6193 33.0357 48.2047 33.1753 48.762 33.343C49.2079 33.4544 49.6537 33.594 50.0725 33.7898C49.9329 33.9284 49.7652 34.0409 49.5985 34.1523C49.3475 34.319 49.0412 34.4867 48.762 34.6263C47.5912 35.1846 46.337 35.6034 45.0829 35.9659C42.5745 36.719 39.9818 37.2773 37.4172 37.7794C38.7277 37.6128 40.01 37.3888 41.3193 37.1378C42.6016 36.8867 43.912 36.6076 45.1662 36.2732C46.4485 35.9378 47.7027 35.5471 48.9297 34.9888C49.236 34.8492 49.5422 34.6826 49.8214 34.5148C50.0443 34.3753 50.2672 34.2076 50.462 34.0128C50.686 34.1242 50.8808 34.2919 51.0204 34.4586C51.1589 34.6544 51.1318 34.8221 50.9922 35.0451C50.8527 35.2398 50.6297 35.4357 50.3787 35.5753C50.1277 35.743 49.8766 35.8826 49.6266 35.994C48.5672 36.4961 47.4245 36.8867 46.2537 37.2211C43.9672 37.919 41.5985 38.4492 39.2287 38.8961C40.4277 38.7284 41.6266 38.5336 42.7975 38.3096C43.9672 38.0867 45.1662 37.8357 46.337 37.5284C47.5079 37.2211 48.6787 36.8586 49.7933 36.3565C50.0725 36.2169 50.3506 36.0773 50.6016 35.9096C50.8527 35.743 51.1318 35.5471 51.3547 35.268C51.4662 35.1284 51.5495 34.9617 51.5777 34.7378C51.7172 34.5711 51.6329 34.3753 51.5214 34.2076ZM50.4902 33.4263C50.0162 33.2034 49.5152 33.0357 49.0412 32.868C48.4558 32.7013 47.8704 32.5617 47.2568 32.4221C46.0579 32.1711 44.8881 31.9753 43.6891 31.8086C41.2922 31.5013 38.9225 31.1659 36.5527 30.7482C35.3829 30.5523 34.1839 30.3294 33.0412 30.0503C32.4558 29.9107 31.8985 29.7711 31.3131 29.5753C30.7558 29.3805 30.1975 29.1846 29.7235 28.9065C29.5006 28.7669 29.2777 28.5992 29.1943 28.4034V28.3763C29.612 28.4878 30.0589 28.6273 30.4766 28.7107C31.7589 29.018 33.0693 29.269 34.3787 29.4919C36.9714 29.9388 39.5912 30.3013 42.212 30.6086C43.5214 30.7753 44.8037 30.9711 46.086 31.2221C46.7277 31.3617 47.3683 31.5013 47.9818 31.669C48.5954 31.8357 49.236 32.0315 49.7652 32.3388C50.0443 32.4773 50.2954 32.6732 50.435 32.868C50.5464 33.0919 50.5735 33.2596 50.4902 33.4263Z" fill="#120900"/>
</g>
</g>
</g>
<g id="Clip path group_13">
<mask id="mask12_90_4259" style="mask-type:luminance" maskUnits="userSpaceOnUse" x="43" y="22" width="6" height="8">
<g id="485e359414">
<path id="Vector_27" d="M43.1406 22H48.9323V30H43.1406V22Z" fill="white"/>
</g>
</mask>
<g mask="url(#mask12_90_4259)">
<g id="Group_13">
<path id="Vector_28" d="M48.1911 28.0124C47.9005 27.0437 47.9505 25.9135 48.3318 24.8301C48.4182 24.5853 48.5182 24.3489 48.6307 24.1208C48.1953 23.5603 47.662 23.0728 47.0443 22.7176C46.3547 22.3228 45.3005 21.9249 44.5682 22.4301C44.4828 22.4885 44.4026 22.5614 44.362 22.6562C44.3213 22.752 44.3276 22.852 44.3568 22.9499C44.3932 23.0739 44.4672 23.1926 44.5328 23.2916C45.0432 24.0583 45.6765 24.7176 46.314 25.3791C46.663 25.7426 47.012 26.1114 47.2828 26.5353C47.5547 26.9593 47.7474 27.4458 47.7536 27.9478C47.3078 27.1551 46.613 26.5374 45.9547 25.9083C45.5557 25.526 45.163 25.1312 44.839 24.6822C44.6786 24.4583 44.5422 24.2239 44.4234 23.977C44.3005 23.7208 44.0838 22.9468 43.6682 23.3208C43.4432 23.5228 43.3401 23.877 43.2651 24.1583C43.1953 24.4218 43.1609 24.6947 43.1557 24.9676C43.1443 25.5749 43.2776 26.1822 43.5057 26.7437C43.6422 27.0801 43.813 27.402 44.014 27.7041C45.2411 29.5562 47.3318 30.3405 48.6828 29.4572C48.7557 29.4093 48.8245 29.3572 48.8901 29.302C48.5828 28.9572 48.3443 28.5218 48.1911 28.0124Z" fill="#6F4323"/>
</g>
</g>
</g>
<path id="Vector_29" d="M54.3635 24.0101C54.2916 23.7477 54.1926 23.4914 54.0593 23.2529C53.9176 22.9966 53.7312 22.6779 53.4635 22.5362C52.9697 22.2747 52.9478 23.0779 52.8916 23.3549C52.8374 23.6237 52.7614 23.8841 52.6603 24.1393C52.4562 24.6529 52.1718 25.131 51.8781 25.5977C51.3926 26.3674 50.8708 27.1341 50.6312 28.0102C50.5156 27.5216 50.5833 27.0039 50.7437 26.5268C50.9031 26.0508 51.1499 25.6081 51.401 25.1716C51.8562 24.3768 52.3103 23.5831 52.6176 22.7174C52.6572 22.606 52.6999 22.4716 52.7051 22.3435C52.7103 22.2414 52.6906 22.1424 52.6281 22.0591C52.5656 21.9768 52.4708 21.9258 52.3739 21.8893C51.5385 21.5758 50.6135 22.2164 50.0416 22.7664C49.4145 23.3685 48.9593 24.1341 48.6718 24.9487C47.9343 27.0414 48.5728 29.1674 50.0999 29.6987C51.626 30.2299 53.4624 28.9643 54.1999 26.8727C54.3208 26.531 54.4083 26.1779 54.4583 25.8185C54.5426 25.2185 54.5228 24.5977 54.3635 24.0101Z" fill="#120900"/>
<path id="Vector_30" d="M52.5829 17.4054C52.2506 16.9606 51.6235 17.5523 51.6235 17.5523C51.6235 17.5523 50.9964 16.9606 50.6652 17.4054C50.3121 17.8783 51.2631 18.5367 51.6235 19.1419C51.9881 18.5315 52.936 17.8783 52.5829 17.4054Z" fill="#120900"/>
<path id="Vector_31" d="M50.7655 18.5636C50.0343 17.5834 48.651 18.8886 48.651 18.8886C48.651 18.8886 47.2676 17.5834 46.5353 18.5636C45.7572 19.6063 47.8562 21.0584 48.651 22.3928C49.4551 21.048 51.5437 19.6063 50.7655 18.5636Z" fill="#6F4323"/>
<g id="Clip path group_14">
<mask id="mask13_90_4259" style="mask-type:luminance" maskUnits="userSpaceOnUse" x="3" y="36" width="4" height="8">
<g id="66a8d7e09a">
<path id="Vector_32" d="M3.29492 36.4492H6.40534V43.4482H3.29492V36.4492Z" fill="white"/>
</g>
</mask>
<g mask="url(#mask13_90_4259)">
<g id="Group_14">
<path id="Vector_33" d="M6.09076 42.9846C6.07201 43.1076 6.0293 43.2263 5.96576 43.3346C5.96576 43.3346 5.96471 43.3357 5.96471 43.3367C5.91888 43.4138 5.83555 43.4586 5.73659 43.4461C4.45117 43.2836 3.29492 41.7232 3.29492 39.8971C3.29492 37.9607 4.37617 36.543 5.96992 36.4503C6.09492 36.443 6.21888 36.4628 6.33971 36.4878C6.39909 36.4992 6.42305 36.5638 6.38451 36.6065C5.56159 37.5273 5.08971 38.344 5.17513 39.4773C5.20638 39.8836 5.35221 40.3878 5.53451 40.869C5.70326 41.3211 6.22409 42.1159 6.09076 42.9846Z" fill="#6F4323"/>
</g>
</g>
</g>
<g id="Clip path group_15">
<mask id="mask14_90_4259" style="mask-type:luminance" maskUnits="userSpaceOnUse" x="5" y="36" width="4" height="8">
<g id="41119a403f">
<path id="Vector_34" d="M5.46802 36.4473H8.49406V43.4473H5.46802V36.4473Z" fill="white"/>
</g>
</mask>
<g mask="url(#mask14_90_4259)">
<g id="Group_15">
<path id="Vector_35" d="M8.49443 39.955C8.49443 41.6164 7.66214 43.0081 6.54443 43.3695C6.40068 43.4154 6.26109 43.2873 6.29443 43.1414C6.35276 42.8883 6.39026 42.6279 6.38089 42.3664C6.33297 41.0008 5.69859 40.5675 5.62568 39.6706C5.55797 38.8341 5.65484 38.0539 6.32464 37.0091C6.39755 36.8956 6.48297 36.7904 6.57984 36.6956C6.62359 36.6279 6.71839 36.605 6.79547 36.6425C7.78505 37.1164 8.49443 38.4216 8.49443 39.955Z" fill="#6F4323"/>
</g>
</g>
</g>
<g id="Clip path group_16">
<mask id="mask15_90_4259" style="mask-type:luminance" maskUnits="userSpaceOnUse" x="73" y="36" width="4" height="8">
<g id="3e793941f6">
<path id="Vector_36" d="M73.7102 36.5664H76.8206V43.5654H73.7102V36.5664Z" fill="white"/>
</g>
</mask>
<g mask="url(#mask15_90_4259)">
<g id="Group_16">
<path id="Vector_37" d="M74.0236 37.0304C74.0424 36.9075 74.0851 36.7888 74.1486 36.6804C74.1497 36.6804 74.1497 36.6794 74.1497 36.6783C74.1955 36.6013 74.2799 36.5565 74.3778 36.569C75.6632 36.7315 76.8195 38.2919 76.8195 40.1179C76.8195 42.0544 75.7382 43.4721 74.1445 43.5648C74.0195 43.5721 73.8955 43.5523 73.7747 43.5273C73.7153 43.5158 73.6914 43.4513 73.7299 43.4086C74.5528 42.4877 75.0247 41.6721 74.9393 40.5377C74.908 40.1315 74.7622 39.6273 74.5799 39.1461C74.4122 38.694 73.8903 37.8992 74.0236 37.0304Z" fill="#6F4323"/>
</g>
</g>
</g>
<g id="Clip path group_17">
<mask id="mask16_90_4259" style="mask-type:luminance" maskUnits="userSpaceOnUse" x="71" y="36" width="4" height="8">
<g id="edad1f4e07">
<path id="Vector_38" d="M71.6179 36.5664H74.5315V43.5664H71.6179V36.5664Z" fill="white"/>
</g>
</mask>
<g mask="url(#mask16_90_4259)">
<g id="Group_17">
<path id="Vector_39" d="M71.6179 40.0591C71.6179 38.3977 72.4502 37.006 73.5679 36.6456C73.7127 36.5987 73.8513 36.7268 73.8179 36.8727C73.7596 37.1258 73.7221 37.3862 73.7315 37.6477C73.7794 39.0143 74.4138 39.4466 74.4867 40.3445C74.5544 41.18 74.4575 41.9612 73.7877 43.005C73.7148 43.1185 73.6294 43.2237 73.5325 43.3185C73.4888 43.3862 73.394 43.4091 73.3169 43.3727C72.3273 42.8977 71.6179 41.5925 71.6179 40.0591Z" fill="#6F4323"/>
</g>
</g>
</g>
<g id="Clip path group_18">
<mask id="mask17_90_4259" style="mask-type:luminance" maskUnits="userSpaceOnUse" x="4" y="30" width="5" height="6">
<g id="8fdb8b7a50">
<path id="Vector_40" d="M4.93042 30.2666H8.13042V35.3333H4.93042V30.2666Z" fill="white"/>
</g>
</mask>
<g mask="url(#mask17_90_4259)">
<g id="Group_18">
<g id="Clip path group_19">
<mask id="mask18_90_4259" style="mask-type:luminance" maskUnits="userSpaceOnUse" x="4" y="29" width="6" height="7">
<g id="2f8bd36ff3">
<path id="Vector_41" d="M5.84878 29.9111L9.3342 30.8163L8.07795 35.6559L4.59253 34.7507L5.84878 29.9111Z" fill="white"/>
</g>
</mask>
<g mask="url(#mask18_90_4259)">
<g id="Group_19">
<g id="Clip path group_20">
<mask id="mask19_90_4259" style="mask-type:luminance" maskUnits="userSpaceOnUse" x="4" y="29" width="6" height="7">
<g id="0c5ad0fc12">
<path id="Vector_42" d="M5.84414 29.9111L9.32956 30.8163L8.07331 35.6559L4.58789 34.7507L5.84414 29.9111Z" fill="white"/>
</g>
</mask>
<g mask="url(#mask19_90_4259)">
<g id="Group_20">
<g id="Clip path group_21">
<mask id="mask20_90_4259" style="mask-type:luminance" maskUnits="userSpaceOnUse" x="4" y="29" width="4" height="7">
<g id="64a1c1e684">
<path id="Vector_43" d="M5.84115 29.9121L7.92552 30.4527L6.66927 35.2913L4.58594 34.7507L5.84115 29.9121Z" fill="white"/>
</g>
</mask>
<g mask="url(#mask20_90_4259)">
<g id="Group_21">
<g id="Clip path group_22">
<mask id="mask21_90_4259" style="mask-type:luminance" maskUnits="userSpaceOnUse" x="4" y="29" width="4" height="7">
<g id="a7b3daf4ea">
<path id="Vector_44" d="M5.83993 29.9121L7.9243 30.4527L6.66805 35.2913L4.58472 34.7507L5.83993 29.9121Z" fill="white"/>
</g>
</mask>
<g mask="url(#mask21_90_4259)">
<g id="Group_22">
<path id="Vector_45" d="M6.54355 34.9158C6.50918 34.9981 6.45814 35.0721 6.39668 35.1356L6.39564 35.1366C6.35085 35.1825 6.2873 35.1991 6.22376 35.1731C5.39043 34.8366 4.89668 33.5575 5.22376 32.295C5.57168 30.9575 6.55085 30.1648 7.63418 30.3783C7.7196 30.395 7.79876 30.4304 7.87585 30.4679C7.91335 30.4866 7.91751 30.5346 7.88522 30.5575C7.16751 31.0512 6.70501 31.5335 6.55918 32.3325C6.5071 32.6189 6.51439 32.9929 6.5498 33.3564C6.5821 33.6981 6.78835 34.3377 6.54355 34.9158Z" fill="#120900"/>
</g>
</g>
</g>
</g>
</g>
</g>
</g>
</g>
</g>
</g>
</g>
</g>
</g>
</g>
</g>
<g id="Clip path group_23">
<mask id="mask22_90_4259" style="mask-type:luminance" maskUnits="userSpaceOnUse" x="6" y="30" width="3" height="6">
<g id="1dcd4149b7">
<path id="Vector_46" d="M6.5332 30.5332H8.9332V35.3332H6.5332V30.5332Z" fill="white"/>
</g>
</mask>
<g mask="url(#mask22_90_4259)">
<g id="Group_23">
<g id="Clip path group_24">
<mask id="mask23_90_4259" style="mask-type:luminance" maskUnits="userSpaceOnUse" x="4" y="29" width="6" height="7">
<g id="99e294fff3">
<path id="Vector_47" d="M5.84927 29.9111L9.33468 30.8163L8.07843 35.6559L4.59302 34.7507L5.84927 29.9111Z" fill="white"/>
</g>
</mask>
<g mask="url(#mask23_90_4259)">
<g id="Group_24">
<g id="Clip path group_25">
<mask id="mask24_90_4259" style="mask-type:luminance" maskUnits="userSpaceOnUse" x="4" y="29" width="6" height="7">
<g id="3e2047b4c9">
<path id="Vector_48" d="M5.84927 29.9111L9.33468 30.8163L8.07843 35.6559L4.59302 34.7507L5.84927 29.9111Z" fill="white"/>
</g>
</mask>
<g mask="url(#mask24_90_4259)">
<g id="Group_25">
<path id="Vector_49" d="M8.70351 33.2402C8.40559 34.3892 7.5983 35.2058 6.78476 35.261C6.67955 35.2683 6.60872 35.1558 6.65768 35.06C6.74309 34.8954 6.81393 34.7225 6.85455 34.5392C7.06809 33.5871 6.72018 33.1777 6.83268 32.5444C6.93684 31.9548 7.14205 31.4319 7.77851 30.8267C7.84726 30.761 7.9233 30.7027 8.00559 30.6548C8.04726 30.6152 8.11497 30.6162 8.15976 30.6548C8.73788 31.1548 8.97955 32.1808 8.70351 33.2402Z" fill="#120900"/>
</g>
</g>
</g>
</g>
</g>
</g>
</g>
</g>
</g>
<g id="Clip path group_26">
<mask id="mask25_90_4259" style="mask-type:luminance" maskUnits="userSpaceOnUse" x="72" y="44" width="4" height="6">
<g id="5764d98c2f">
<path id="Vector_50" d="M72.1328 44.6665H75.0661V49.7332H72.1328V44.6665Z" fill="white"/>
</g>
</mask>
<g mask="url(#mask25_90_4259)">
<g id="Group_26">
<g id="Clip path group_27">
<mask id="mask26_90_4259" style="mask-type:luminance" maskUnits="userSpaceOnUse" x="70" y="44" width="6" height="7">
<g id="b912666b3d">
<path id="Vector_51" d="M74.2656 50.1032L70.7812 49.198L72.0375 44.3584L75.5219 45.2636L74.2656 50.1032Z" fill="white"/>
</g>
</mask>
<g mask="url(#mask26_90_4259)">
<g id="Group_27">
<g id="Clip path group_28">
<mask id="mask27_90_4259" style="mask-type:luminance" maskUnits="userSpaceOnUse" x="70" y="44" width="6" height="7">
<g id="f8691aa47f">
<path id="Vector_52" d="M74.2668 50.1037L70.7825 49.1985L72.0387 44.3589L75.5231 45.2641L74.2668 50.1037Z" fill="white"/>
</g>
</mask>
<g mask="url(#mask27_90_4259)">
<g id="Group_28">
<g id="Clip path group_29">
<mask id="mask28_90_4259" style="mask-type:luminance" maskUnits="userSpaceOnUse" x="72" y="44" width="4" height="7">
<g id="0cdd4aeadb">
<path id="Vector_53" d="M74.2646 50.1023L72.1802 49.5617L73.4364 44.7231L75.5208 45.2638L74.2646 50.1023Z" fill="white"/>
</g>
</mask>
<g mask="url(#mask28_90_4259)">
<g id="Group_29">
<g id="Clip path group_30">
<mask id="mask29_90_4259" style="mask-type:luminance" maskUnits="userSpaceOnUse" x="72" y="44" width="4" height="7">
<g id="12cf5dbfdd">
<path id="Vector_54" d="M74.2599 50.1018L72.1755 49.5612L73.4318 44.7227L75.5162 45.2633L74.2599 50.1018Z" fill="white"/>
</g>
</mask>
<g mask="url(#mask29_90_4259)">
<g id="Group_30">
<path id="Vector_55" d="M73.561 45.0977C73.5964 45.0154 73.6464 44.9415 73.7079 44.8779C73.7089 44.8779 73.7089 44.8769 73.7089 44.8769C73.7537 44.8311 73.8183 44.8144 73.8818 44.8404C74.7141 45.1769 75.2089 46.4561 74.8808 47.7186C74.5339 49.0561 73.5547 49.8488 72.4704 49.6352C72.3849 49.6186 72.3058 49.5832 72.2287 49.5457C72.1912 49.5269 72.187 49.479 72.2204 49.4561C72.937 48.9623 73.3995 48.48 73.5454 47.6811C73.5974 47.3946 73.5901 47.0207 73.5547 46.6571C73.5224 46.3154 73.3162 45.6759 73.561 45.0977Z" fill="#120900"/>
</g>
</g>
</g>
</g>
</g>
</g>
</g>
</g>
</g>
</g>
</g>
</g>
</g>
</g>
</g>
<g id="Clip path group_31">
<mask id="mask30_90_4259" style="mask-type:luminance" maskUnits="userSpaceOnUse" x="71" y="44" width="3" height="6">
<g id="b5ca1bba8c">
<path id="Vector_56" d="M71.0645 44.667H73.7311V49.467H71.0645V44.667Z" fill="white"/>
</g>
</mask>
<g mask="url(#mask30_90_4259)">
<g id="Group_31">
<g id="Clip path group_32">
<mask id="mask31_90_4259" style="mask-type:luminance" maskUnits="userSpaceOnUse" x="70" y="44" width="6" height="7">
<g id="c4844b1d60">
<path id="Vector_57" d="M74.2649 50.1027L70.7805 49.1975L72.0368 44.3579L75.5211 45.2631L74.2649 50.1027Z" fill="white"/>
</g>
</mask>
<g mask="url(#mask31_90_4259)">
<g id="Group_32">
<g id="Clip path group_33">
<mask id="mask32_90_4259" style="mask-type:luminance" maskUnits="userSpaceOnUse" x="70" y="44" width="6" height="7">
<g id="cdaa4aee67">
<path id="Vector_58" d="M74.2656 50.1022L70.7812 49.197L72.0375 44.3574L75.5219 45.2626L74.2656 50.1022Z" fill="white"/>
</g>
</mask>
<g mask="url(#mask32_90_4259)">
<g id="Group_33">
<path id="Vector_59" d="M71.4103 46.7731C71.7083 45.6242 72.5155 44.8075 73.3301 44.7523C73.4343 44.745 73.5051 44.8575 73.4562 44.9533C73.3718 45.1179 73.2999 45.2908 73.2593 45.4742C73.0468 46.4262 73.3937 46.8356 73.2812 47.469C73.177 48.0585 72.9718 48.5815 72.3353 49.1867C72.2666 49.2523 72.1905 49.3106 72.1093 49.3585C72.0666 49.3981 71.9989 49.3971 71.9541 49.3585C71.377 48.8585 71.1353 47.8325 71.4103 46.7731Z" fill="#120900"/>
</g>
</g>
</g>
</g>
</g>
</g>
</g>
</g>
</g>
<g id="Clip path group_34">
<mask id="mask33_90_4259" style="mask-type:luminance" maskUnits="userSpaceOnUse" x="4" y="44" width="4" height="6">
<g id="92d75f7d36">
<path id="Vector_60" d="M4.93042 44.666H7.86375V49.7327H4.93042V44.666Z" fill="white"/>
</g>
</mask>
<g mask="url(#mask33_90_4259)">
<g id="Group_34">
<g id="Clip path group_35">
<mask id="mask34_90_4259" style="mask-type:luminance" maskUnits="userSpaceOnUse" x="4" y="44" width="6" height="7">
<g id="6c1588c336">
<path id="Vector_61" d="M4.58472 45.3414L8.05555 44.3872L9.38055 49.2091L5.90868 50.1632L4.58472 45.3414Z" fill="white"/>
</g>
</mask>
<g mask="url(#mask34_90_4259)">
<g id="Group_35">
<g id="Clip path group_36">
<mask id="mask35_90_4259" style="mask-type:luminance" maskUnits="userSpaceOnUse" x="4" y="44" width="6" height="7">
<g id="cb066af070">
<path id="Vector_62" d="M4.58667 45.3419L8.0575 44.3877L9.3825 49.2096L5.91063 50.1637L4.58667 45.3419Z" fill="white"/>
</g>
</mask>
<g mask="url(#mask35_90_4259)">
<g id="Group_36">
<g id="Clip path group_37">
<mask id="mask36_90_4259" style="mask-type:luminance" maskUnits="userSpaceOnUse" x="4" y="44" width="4" height="7">
<g id="c84b5b5a51">
<path id="Vector_63" d="M4.58789 45.3423L6.66393 44.7715L7.98789 49.5923L5.91185 50.1621L4.58789 45.3423Z" fill="white"/>
</g>
</mask>
<g mask="url(#mask36_90_4259)">
<g id="Group_37">
<g id="Clip path group_38">
<mask id="mask37_90_4259" style="mask-type:luminance" maskUnits="userSpaceOnUse" x="4" y="44" width="4" height="7">
<g id="12a18c5634">
<path id="Vector_64" d="M4.58887 45.3423L6.66491 44.7715L7.98887 49.5913L5.91283 50.1621L4.58887 45.3423Z" fill="white"/>
</g>
</mask>
<g mask="url(#mask37_90_4259)">
<g id="Group_38">
<path id="Vector_65" d="M7.69173 49.3299C7.70319 49.4185 7.69694 49.5081 7.67507 49.5935C7.67507 49.5945 7.67403 49.5945 7.67403 49.5956C7.6584 49.657 7.61153 49.7039 7.54278 49.7133C6.65423 49.8372 5.58757 48.9737 5.24173 47.7164C4.87507 46.3831 5.32923 45.2091 6.37507 44.8528C6.45736 44.8247 6.54382 44.8153 6.62923 44.8101C6.6709 44.8081 6.69903 44.8476 6.68132 44.8841C6.30632 45.6695 6.1459 46.3174 6.41778 47.0831C6.51465 47.357 6.7084 47.6778 6.91986 47.9747C7.11882 48.256 7.61673 48.707 7.69173 49.3299Z" fill="#120900"/>
</g>
</g>
</g>
</g>
</g>
</g>
</g>
</g>
</g>
</g>
</g>
</g>
</g>
</g>
</g>
<g id="Clip path group_39">
<mask id="mask38_90_4259" style="mask-type:luminance" maskUnits="userSpaceOnUse" x="6" y="44" width="3" height="6">
<g id="6f65f0a6ee">
<path id="Vector_66" d="M6.5332 44.667H8.9332V49.7337H6.5332V44.667Z" fill="white"/>
</g>
</mask>
<g mask="url(#mask38_90_4259)">
<g id="Group_39">
<g id="Clip path group_40">
<mask id="mask39_90_4259" style="mask-type:luminance" maskUnits="userSpaceOnUse" x="4" y="44" width="6" height="7">
<g id="dcff3f194a">
<path id="Vector_67" d="M4.58521 45.3419L8.05604 44.3877L9.38104 49.2096L5.90916 50.1637L4.58521 45.3419Z" fill="white"/>
</g>
</mask>
<g mask="url(#mask39_90_4259)">
<g id="Group_40">
<g id="Clip path group_41">
<mask id="mask40_90_4259" style="mask-type:luminance" maskUnits="userSpaceOnUse" x="4" y="44" width="6" height="7">
<g id="516e52f64e">
<path id="Vector_68" d="M4.58643 45.3419L8.05726 44.3877L9.38226 49.2096L5.91038 50.1637L4.58643 45.3419Z" fill="white"/>
</g>
</mask>
<g mask="url(#mask40_90_4259)">
<g id="Group_41">
<path id="Vector_69" d="M8.72103 46.8033C9.03562 47.947 8.74291 49.0585 8.06478 49.5127C7.97728 49.571 7.86062 49.5085 7.85541 49.4012C7.84603 49.2158 7.82208 49.0304 7.76583 48.8522C7.4752 47.9199 6.97103 47.7387 6.75228 47.1335C6.54916 46.571 6.46583 46.0147 6.71478 45.1731C6.74187 45.0814 6.77937 44.9929 6.82624 44.9106C6.84291 44.8554 6.90228 44.8231 6.95958 44.8335C7.71062 44.9793 8.43145 45.7481 8.72103 46.8033Z" fill="#120900"/>
</g>
</g>
</g>
</g>
</g>
</g>
</g>
</g>
</g>
<g id="Clip path group_42">
<mask id="mask41_90_4259" style="mask-type:luminance" maskUnits="userSpaceOnUse" x="72" y="30" width="4" height="6">
<g id="676f457c3d">
<path id="Vector_70" d="M72.3992 30.2666H75.0658V35.3333H72.3992V30.2666Z" fill="white"/>
</g>
</mask>
<g mask="url(#mask41_90_4259)">
<g id="Group_42">
<g id="Clip path group_43">
<mask id="mask42_90_4259" style="mask-type:luminance" maskUnits="userSpaceOnUse" x="70" y="29" width="6" height="7">
<g id="a7b6f201d6">
<path id="Vector_71" d="M75.5297 34.6729L72.0578 35.6271L70.7339 30.8052L74.2047 29.8511L75.5297 34.6729Z" fill="white"/>
</g>
</mask>
<g mask="url(#mask42_90_4259)">
<g id="Group_43">
<g id="Clip path group_44">
<mask id="mask43_90_4259" style="mask-type:luminance" maskUnits="userSpaceOnUse" x="70" y="29" width="6" height="7">
<g id="697ced3917">
<path id="Vector_72" d="M75.5226 34.6734L72.0508 35.6276L70.7268 30.8057L74.1976 29.8516L75.5226 34.6734Z" fill="white"/>
</g>
</mask>
<g mask="url(#mask43_90_4259)">
<g id="Group_44">
<g id="Clip path group_45">
<mask id="mask44_90_4259" style="mask-type:luminance" maskUnits="userSpaceOnUse" x="72" y="29" width="4" height="7">
<g id="11d5ee8232">
<path id="Vector_73" d="M75.5243 34.6728L73.4483 35.2437L72.1233 30.4228L74.1993 29.853L75.5243 34.6728Z" fill="white"/>
</g>
</mask>
<g mask="url(#mask44_90_4259)">
<g id="Group_45">
<g id="Clip path group_46">
<mask id="mask45_90_4259" style="mask-type:luminance" maskUnits="userSpaceOnUse" x="72" y="29" width="4" height="7">
<g id="893c7b96de">
<path id="Vector_74" d="M75.5221 34.6728L73.4461 35.2437L72.1211 30.4239L74.1971 29.853L75.5221 34.6728Z" fill="white"/>
</g>
</mask>
<g mask="url(#mask45_90_4259)">
<g id="Group_46">
<path id="Vector_75" d="M72.4197 30.6852C72.4093 30.5967 72.4155 30.5071 72.4374 30.4217C72.4374 30.4206 72.4374 30.4206 72.4374 30.4196C72.453 30.3581 72.501 30.3112 72.5687 30.3019C73.4583 30.1779 74.5249 31.0414 74.8697 32.2987C75.2364 33.6321 74.7833 34.806 73.7364 35.1623C73.6541 35.1904 73.5676 35.1998 73.4833 35.205C73.4405 35.2071 73.4124 35.1675 73.4301 35.131C73.8062 34.3456 73.9655 33.6977 73.6937 32.9321C73.5968 32.6581 73.4041 32.3373 73.1916 32.0404C72.9937 31.7592 72.4958 31.3081 72.4197 30.6852Z" fill="#120900"/>
</g>
</g>
</g>
</g>
</g>
</g>
</g>
</g>
</g>
</g>
</g>
</g>
</g>
</g>
</g>
<g id="Clip path group_47">
<mask id="mask46_90_4259" style="mask-type:luminance" maskUnits="userSpaceOnUse" x="71" y="30" width="3" height="6">
<g id="baead6505d">
<path id="Vector_76" d="M71.0645 30.2666H73.7311V35.3333H71.0645V30.2666Z" fill="white"/>
</g>
</mask>
<g mask="url(#mask46_90_4259)">
<g id="Group_47">
<g id="Clip path group_48">
<mask id="mask47_90_4259" style="mask-type:luminance" maskUnits="userSpaceOnUse" x="70" y="29" width="6" height="7">
<g id="e17d50ec77">
<path id="Vector_77" d="M75.5302 34.6729L72.0583 35.6271L70.7344 30.8052L74.2052 29.8511L75.5302 34.6729Z" fill="white"/>
</g>
</mask>
<g mask="url(#mask47_90_4259)">
<g id="Group_48">
<g id="Clip path group_49">
<mask id="mask48_90_4259" style="mask-type:luminance" maskUnits="userSpaceOnUse" x="70" y="29" width="6" height="7">
<g id="1014d837df">
<path id="Vector_78" d="M75.5231 34.6734L72.0513 35.6276L70.7273 30.8057L74.1981 29.8516L75.5231 34.6734Z" fill="white"/>
</g>
</mask>
<g mask="url(#mask48_90_4259)">
<g id="Group_49">
<path id="Vector_79" d="M71.3903 33.2122C71.0768 32.0684 71.3685 30.957 72.0466 30.5028C72.1341 30.4445 72.2518 30.507 72.257 30.6143C72.2653 30.7997 72.2893 30.9851 72.3455 31.1632C72.6362 32.0955 73.1414 32.2768 73.3601 32.882C73.5632 33.4445 73.6455 34.0007 73.3966 34.8424C73.3695 34.9341 73.332 35.0226 73.2862 35.1049C73.2685 35.1601 73.2101 35.1934 73.1518 35.182C72.4018 35.0361 71.681 34.2674 71.3903 33.2122Z" fill="#120900"/>
</g>
</g>
</g>
</g>
</g>
</g>
</g>
</g>
</g>
<g id="Group_50">
<g id="Group_51">
<g id="Group_52">
<path id="Vector_80" d="M21.1841 13.223L21.8612 12.8147C21.9612 12.7543 21.9133 12.572 21.7914 12.5626C21.7706 12.5626 21.7498 12.5616 21.7289 12.5605C21.6279 12.5522 21.5404 12.4751 21.5216 12.3636L21.506 12.3043L21.4102 11.747L22.9164 10.8407L23.3821 11.2168C23.455 11.2824 23.4758 11.3855 23.4425 11.4886C23.4237 11.5261 23.4144 11.5668 23.3977 11.597C23.3487 11.7084 23.4883 11.8366 23.5883 11.7761L25.2946 10.7501C25.4008 10.6866 25.3519 10.5043 25.23 10.4949C25.1883 10.4928 25.1414 10.4938 25.0987 10.4918C24.9914 10.4949 24.8675 10.4605 24.7841 10.4011L21.6571 8.00947C21.5758 7.94176 21.4539 7.93343 21.3612 7.98239L20.2904 8.54385C20.2019 8.59072 20.1925 8.66468 20.2737 8.73239L20.5758 8.97406L21.1498 12.5866C21.1654 12.6803 21.1321 12.7959 21.0685 12.8949C21.0341 12.9511 21.0133 12.997 20.9883 13.0459C20.9394 13.1574 21.0779 13.2866 21.1841 13.223ZM21.0102 9.32093L22.6279 10.6116L21.3529 11.3782L21.0102 9.32093Z" fill="#603913"/>
</g>
</g>
</g>
<g id="Group_53">
<g id="Group_54">
<g id="Group_55">
<path id="Vector_81" d="M24.4198 6.76058C24.4531 6.76579 24.5 6.77308 24.5521 6.77724C24.6583 6.79287 24.7552 6.86162 24.7938 6.95954L25.924 9.8512C25.9479 9.94287 25.9271 10.0512 25.8604 10.122C25.8302 10.1585 25.7958 10.197 25.7771 10.2293C25.7094 10.3314 25.825 10.4814 25.9396 10.4366L27.625 9.77724C27.7396 9.73245 27.7229 9.54391 27.6042 9.51474C27.5635 9.50537 27.5271 9.49495 27.4885 9.49079C27.3792 9.47099 27.2885 9.39912 27.2521 9.30641L26.8281 8.22099L26.9427 8.1762C27.2177 8.07516 27.4594 8.06787 27.9427 8.54599L28.2771 8.88662L28.2719 8.8887L28.301 8.91474C28.375 8.99287 28.3823 9.09079 28.3063 9.17099C28.2823 9.20537 28.251 9.23662 28.2323 9.26891C28.1646 9.37099 28.2802 9.52099 28.3948 9.4762L30.2656 8.74391C30.3802 8.69912 30.3635 8.51058 30.2448 8.48141C30.2115 8.4762 30.1854 8.47412 30.1531 8.47308C30.0479 8.47724 29.9313 8.43454 29.851 8.35953L29.2833 7.8262C28.9625 7.48662 28.6542 7.37412 28.426 7.41891C29.0052 6.98558 29.2531 6.51058 29.0615 6.01995C28.7542 5.23454 27.6458 5.21474 26.1427 5.80954L24.3927 6.50016C24.2844 6.54287 24.301 6.73141 24.4198 6.76058ZM26.1125 6.39287C26.074 6.29495 26.1125 6.19808 26.2104 6.16058C27.0302 5.84495 27.501 5.96995 27.7271 6.54808C27.951 7.12099 27.6708 7.5137 26.8635 7.82933C26.7656 7.86787 26.674 7.82828 26.6354 7.73037L26.151 6.49183L26.1125 6.39287Z" fill="#603913"/>
</g>
</g>
</g>
<g id="Group_56">
<g id="Group_57">
<g id="Group_58">
<path id="Vector_82" d="M30.5038 6.46802C30.7819 7.77427 31.7465 8.44927 33.2079 8.13677C34.6684 7.82531 35.285 6.81385 35.0007 5.50864C34.7225 4.20239 33.7507 3.52323 32.2892 3.83469C30.8288 4.14614 30.2246 5.16177 30.5038 6.46802ZM32.1538 4.23469C32.7444 4.03156 33.184 4.68573 33.5423 5.71802C33.8934 6.7451 33.9527 7.52948 33.3548 7.73469C32.7642 7.93885 32.3142 7.29198 31.9621 6.25864C31.6048 5.22635 31.5621 4.43885 32.1538 4.23469Z" fill="#603913"/>
</g>
</g>
</g>
<g id="Group_59">
<g id="Group_60">
<g id="Group_61">
<path id="Vector_83" d="M36.0067 7.4757L36.7973 7.44653C36.9202 7.44236 36.9661 7.25903 36.864 7.19236C36.8286 7.16945 36.7921 7.14757 36.7629 7.1309C36.6671 7.0757 36.5984 6.97882 36.6004 6.87882L36.5973 4.19445L37.8806 7.2434C37.9254 7.34132 38.0213 7.40174 38.1265 7.39861L38.4015 7.3882C38.5067 7.38403 38.5921 7.31632 38.6296 7.21528L39.6129 4.10278L39.8442 6.76111C39.8421 6.86736 39.7869 6.9684 39.689 7.01945C39.6494 7.0434 39.6088 7.0684 39.5744 7.0934C39.4838 7.16736 39.5431 7.34653 39.6598 7.34236L41.4692 7.27674C41.5921 7.27257 41.6442 7.0882 41.5421 7.02153C41.5056 6.99965 41.4702 6.97778 41.4338 6.96111C41.3442 6.9059 41.2817 6.80903 41.2786 6.70903L41.0129 3.6007C41.015 3.5059 41.0702 3.41007 41.1504 3.35486C41.1848 3.33611 41.2192 3.31111 41.2536 3.28715C41.3504 3.2132 41.2859 3.03299 41.1629 3.0382L39.7463 3.08924C39.64 3.0934 39.5494 3.16111 39.5119 3.26215L38.7515 5.58195L37.7442 3.32674C37.6994 3.22882 37.6036 3.16736 37.4973 3.17153L35.9702 3.22674C35.8525 3.2309 35.8067 3.41424 35.9088 3.4809C35.939 3.50382 35.9806 3.5257 36.0286 3.54757C36.1119 3.58507 36.1734 3.65903 36.1879 3.74653L36.1911 6.89445C36.1952 6.99965 36.1338 7.10174 36.0421 7.15174C35.9963 7.17674 35.9556 7.20174 35.9275 7.2257C35.8306 7.29965 35.89 7.47986 36.0067 7.4757Z" fill="#603913"/>
</g>
</g>
</g>
<g id="Group_62">
<g id="Group_63">
<g id="Group_64">
<path id="Vector_84" d="M42.1704 7.34411L42.9527 7.45661C43.0683 7.47328 43.1464 7.3014 43.0579 7.21807C43.0422 7.20348 43.0266 7.1889 43.011 7.17536C42.9381 7.10557 42.9193 6.98994 42.9756 6.89203L43.0006 6.83682L43.2787 6.34411L45.0183 6.59515L45.1412 7.18057C45.1568 7.27744 45.1079 7.37119 45.0162 7.42953C44.9787 7.44723 44.9454 7.47223 44.9131 7.48578C44.8047 7.54098 44.8308 7.72848 44.9474 7.74515L46.9183 8.02953C47.0402 8.04723 47.1183 7.87536 47.0297 7.79098C46.9985 7.76286 46.961 7.73369 46.9297 7.70557C46.8443 7.63994 46.7704 7.53473 46.7433 7.43578L45.8349 3.60557C45.8141 3.50244 45.7256 3.41807 45.6224 3.39723L44.4381 3.15557C44.3402 3.13578 44.2849 3.18682 44.3058 3.28994L44.387 3.66911L42.5464 6.82953C42.4985 6.91182 42.3995 6.98057 42.2881 7.01807C42.2256 7.03786 42.1808 7.06182 42.1308 7.08369C42.0224 7.1389 42.0485 7.3264 42.1704 7.34411ZM44.5047 4.21286L44.9402 6.23473L43.4672 6.02223L44.5047 4.21286Z" fill="#603913"/>
</g>
</g>
</g>
<g id="Group_65">
<g id="Group_66">
<g id="Group_67">
<path id="Vector_85" d="M48.9212 5.10173C49.1441 4.91944 49.3149 4.66632 49.8962 4.84861L50.0639 4.90069L49.0722 8.07048C49.0347 8.16944 48.9493 8.24653 48.841 8.26215C48.7941 8.27257 48.7483 8.28194 48.7076 8.29444C48.5972 8.33298 48.593 8.52257 48.7055 8.55694L50.4326 9.09757C50.5503 9.13403 50.6608 8.97882 50.5858 8.88194C50.5597 8.84861 50.5326 8.81632 50.5045 8.78923C50.4389 8.70694 50.4118 8.59444 50.442 8.49965L51.4337 5.32882L51.5962 5.37986C52.1774 5.56215 52.1795 5.86944 52.2535 6.14444C52.2868 6.25278 52.3566 6.32361 52.4347 6.34861C52.541 6.38194 52.6493 6.32986 52.6701 6.16424C52.7035 5.96007 52.7191 5.71319 52.7326 5.55173C52.7368 5.44236 52.6722 5.35486 52.5712 5.32257L49.1274 4.24549C49.0264 4.21424 48.9233 4.24965 48.8701 4.34236C48.7837 4.48194 48.6555 4.6934 48.567 4.87986C48.4899 5.02778 48.5493 5.13298 48.6555 5.16528C48.7337 5.19028 48.8316 5.17153 48.9212 5.10173Z" fill="#603913"/>
</g>
</g>
</g>
<g id="Group_68">
<g id="Group_69">
<g id="Group_70">
<path id="Vector_86" d="M52.4417 9.85975L54.0959 10.6087C54.2084 10.6587 54.3313 10.515 54.2699 10.4098C54.247 10.3743 54.2251 10.3389 54.2053 10.3108C54.1438 10.2181 54.1313 10.1035 54.173 10.0129L55.4261 7.24309L55.4501 7.18996C55.4917 7.09934 55.5865 7.03267 55.6959 7.01809C55.7292 7.01392 55.7709 7.00663 55.8126 7.00038C55.9324 6.97746 55.9595 6.78996 55.847 6.73892L54.1928 5.98996C54.0865 5.94205 53.9636 6.0858 54.0251 6.191C54.0417 6.22434 54.0699 6.26288 54.1032 6.3035C54.1688 6.38475 54.1865 6.50142 54.1428 6.5983L52.8657 9.42121C52.822 9.51705 52.722 9.58163 52.6178 9.5858C52.5647 9.58788 52.5178 9.59205 52.4813 9.60142C52.3615 9.62434 52.3355 9.8108 52.4417 9.85975Z" fill="#603913"/>
</g>
</g>
</g>
<g id="Group_71">
<g id="Group_72">
<g id="Group_73">
<path id="Vector_87" d="M56.064 9.16762C55.4369 10.2812 55.6358 11.4812 56.9098 12.2614C57.964 12.9072 58.89 12.8426 59.5358 12.0228C59.6577 11.8697 59.7223 11.6968 59.5785 11.5947C59.415 11.4812 59.2733 11.6218 59.1681 11.7489C58.7233 12.2728 58.114 12.3812 57.6098 12.0718C56.8254 11.5916 56.9223 10.7718 57.266 10.0207C57.7223 9.02908 58.2296 8.42595 58.7983 8.68533C59.191 8.86345 59.4473 9.20616 59.0265 9.79366C58.7004 10.2468 58.9108 10.678 59.3619 10.9062C59.9056 11.1843 60.2921 10.7332 60.3608 10.3635C60.4858 9.7322 60.0869 9.04887 59.1775 8.49158C57.9046 7.71137 56.7265 8.0072 56.064 9.16762Z" fill="#603913"/>
</g>
</g>
</g>
<g id="Group_74">
<g id="Group_75">
<g id="Group_76">
<path id="Vector_88" d="M32.8142 75.496C33.3486 75.6075 33.9725 75.57 34.4392 75.2315L34.5777 74.5658C34.6288 74.3252 34.8111 73.77 35.1173 73.7627L33.3507 73.3929C33.6288 73.5231 33.5673 74.1023 33.5173 74.344L33.3923 74.9398C33.2257 74.9648 33.06 74.9544 32.9392 74.9294C32.2871 74.7867 32.0277 74.02 32.2059 73.171C32.384 72.3221 32.9298 71.7179 33.5944 71.8575C34.2777 72.0002 34.6173 72.8075 34.635 73.0627L34.8777 71.5335C34.7736 71.6908 34.66 71.745 34.4934 71.7106C34.2413 71.6575 34.035 71.3565 33.484 71.2408C32.4007 71.0138 31.2746 71.7606 31.0298 72.9242C30.7871 74.0825 31.5184 75.2242 32.8142 75.496Z" fill="#603913"/>
</g>
</g>
</g>
<g id="Group_77">
<g id="Group_78">
<g id="Group_79">
<path id="Vector_89" d="M37.7666 76.1443C38.9301 76.2152 39.9364 75.3068 40.0083 74.1256C40.0801 72.9381 39.1916 71.9214 38.027 71.8506C36.8572 71.7797 35.8572 72.6818 35.7853 73.8693C35.7135 75.0506 36.5968 76.0725 37.7666 76.1443ZM37.9926 72.4297C38.501 72.461 38.8676 73.187 38.8156 74.0527C38.7624 74.9183 38.3103 75.5954 37.802 75.5652C37.2926 75.5339 36.926 74.8068 36.9781 73.9412C37.0312 73.0756 37.4833 72.3985 37.9926 72.4297Z" fill="#603913"/>
</g>
</g>
</g>
<g id="Group_80">
<g id="Group_81">
<g id="Group_82">
<path id="Vector_90" d="M44.3357 75.8846L44.317 74.5398C44.2826 74.7076 44.0857 75.3742 43.2149 75.4398L42.4847 75.494L42.2847 72.818C42.2659 72.5721 42.2878 71.9888 42.5805 71.9023L40.7805 72.0367C41.0836 72.0784 41.1857 72.6534 41.2034 72.8982L41.3764 75.2065C41.3951 75.4576 41.3795 76.0346 41.0868 76.1273L44.3357 75.8846Z" fill="#603913"/>
</g>
</g>
</g>
<g id="Group_83">
<g id="Group_84">
<g id="Group_85">
<path id="Vector_91" d="M47.3331 75.3446C48.4623 75.1071 49.1248 74.0706 48.881 72.906C48.6404 71.7592 47.6373 71.0894 46.4904 71.33L44.6321 71.7196C44.9373 71.7217 45.1144 72.2779 45.1644 72.5185L45.6404 74.7842C45.6925 75.03 45.7529 75.604 45.4748 75.7342L47.3331 75.3446ZM46.5925 71.8477C47.0456 71.7519 47.5373 72.3258 47.7144 73.1685C47.8904 74.006 47.6717 74.7342 47.2185 74.83L46.7769 74.9227L46.1508 71.9404L46.5925 71.8477Z" fill="#603913"/>
</g>
</g>
</g>
<g id="Group_86">
<g id="Group_87">
<g id="Group_88">
<path id="Vector_92" d="M57.3644 30.5316C57.3644 29.9493 56.905 29.7441 56.3008 29.7441C55.8675 29.7441 55.5425 29.9639 55.4644 30.091L55.4946 30.7254C55.5842 30.4348 55.8935 30.1098 56.1998 30.1098C56.554 30.1098 56.6071 30.3743 56.6071 30.5316C56.6071 31.1212 55.5727 31.9191 55.3862 32.0806H55.3821V32.416H57.2894L57.3487 31.5243C57.304 31.7139 56.9352 31.7514 56.7779 31.7514H56.3529C56.8644 31.416 57.3644 30.9712 57.3644 30.5316Z" fill="#603913"/>
</g>
</g>
</g>
<g id="Group_89">
<g id="Group_90">
<g id="Group_91">
<path id="Vector_93" d="M60.0995 31.1103C60.0995 30.3561 59.6443 29.7446 58.8974 29.7446C58.1547 29.7446 57.6953 30.3561 57.6953 31.1103C57.6953 31.8675 58.1547 32.48 58.8974 32.48C59.6443 32.48 60.0995 31.8675 60.0995 31.1103ZM58.9016 32.1103C58.6328 32.1103 58.4609 31.6623 58.4609 31.1103C58.4609 30.5582 58.6328 30.1103 58.9016 30.1103C59.1703 30.1103 59.3411 30.5582 59.3411 31.1103C59.3411 31.6623 59.1661 32.1103 58.9016 32.1103Z" fill="#603913"/>
</g>
</g>
</g>
<g id="Group_92">
<g id="Group_93">
<g id="Group_94">
<path id="Vector_94" d="M62.7628 31.1098C62.7628 30.3556 62.3076 29.7441 61.5607 29.7441C60.818 29.7441 60.3586 30.3556 60.3586 31.1098C60.3586 31.8671 60.818 32.4796 61.5607 32.4796C62.3076 32.4796 62.7628 31.8671 62.7628 31.1098ZM61.5649 32.1098C61.2961 32.1098 61.1243 31.6618 61.1243 31.1098C61.1243 30.5577 61.2961 30.1098 61.5649 30.1098C61.8336 30.1098 62.0045 30.5577 62.0045 31.1098C62.0045 31.6618 61.8295 32.1098 61.5649 32.1098Z" fill="#603913"/>
</g>
</g>
</g>
<g id="Group_95">
<g id="Group_96">
<g id="Group_97">
<path id="Vector_95" d="M63.1062 31.1219L63.3448 31.2782C63.4865 31.148 63.6208 31.0959 63.774 31.0959C64.0615 31.0959 64.2406 31.2938 64.2406 31.5803C64.2406 31.8761 64.0542 32.1105 63.7958 32.1105C63.6062 32.1105 63.401 31.9834 63.2365 31.7563L62.9531 31.9501C63.1323 32.2636 63.5198 32.4803 63.9677 32.4803C64.5615 32.4803 65.0021 32.1105 65.0021 31.5626C65.0021 31.0355 64.5917 30.7303 64.0094 30.7303C63.7854 30.7303 63.6062 30.7751 63.4719 30.8344V30.4719H64.7521L64.8115 29.5771C64.7667 29.7667 64.3969 29.8084 64.2406 29.8084L63.1062 29.8042V31.1219Z" fill="#603913"/>
</g>
</g>
</g>
</g>
</svg>
